<?xml version="1.0" encoding="utf-8"?>
<!-- Generator: Adobe Illustrator 26.2.1, SVG Export Plug-In . SVG Version: 6.00 Build 0)  -->
<svg version="1.1" xmlns="http://www.w3.org/2000/svg" xmlns:xlink="http://www.w3.org/1999/xlink" x="0px" y="0px"
	 viewBox="0 0 332.3 362.6" style="enable-background:new 0 0 332.3 362.6;" xml:space="preserve">
<style type="text/css">
	.st0{display:none;}
	.st1{display:inline;fill:#1E1E1E;}
	.st2{font-family:'NotoSans-Bold';}
	.st3{font-size:66px;}
	.st4{letter-spacing:-2;}
	.st5{letter-spacing:-1;}
	.st6{display:inline;fill:#BCBEC0;}
	.st7{font-family:'NotoSans';}
	.st8{letter-spacing:-3;}
	.st9{font-size:77px;}
	.st10{letter-spacing:-5;}
	.st11{display:inline;}
	.st12{fill:#939598;}
	.st13{fill:#828282;}
	.st14{fill:#FFFFFF;}
	.st15{display:inline;fill:#CCCCCC;}
	.st16{fill:#D1D3D4;}
	.st17{fill:none;stroke:#6D6E71;stroke-width:9;stroke-miterlimit:10;}
</style>
<g id="BlackOnTransparent" class="st0">
	<text transform="matrix(1 0 0 1 72.4618 164.1951)"><tspan x="0" y="0" class="st1 st2 st3 st4">Carleto</tspan><tspan x="223" y="0" class="st1 st2 st3 st5">n</tspan><tspan x="265" y="0" class="st6 st7 st3 st8">.e</tspan><tspan x="313.3" y="0" class="st6 st7 st3 st8">du</tspan></text>
	<text transform="matrix(1 0 0 1 72.4618 244.3453)"><tspan x="0" y="0" class="st1 st2 st9 st10">D</tspan><tspan x="51.7" y="0" class="st1 st2 st9 st4">at</tspan><tspan x="127.2" y="0" class="st1 st2 st9 st4">aS</tspan><tspan x="211.5" y="0" class="st1 st2 st9 st10">qu</tspan><tspan x="300.2" y="0" class="st1 st2 st9 st8">ad</tspan></text>
	<g id="Sphere">
		<g class="st11">
			<g>
				<path class="st12" d="M109.9,26.3l-0.2-1.4c3.7-0.9,10.7-2.6,16.1-3.5c0.8-0.1,1.6-0.2,2.4-0.3c2.9-0.4,5.9-0.7,8.8-0.9
					c3.6-0.3,5.4-0.3,9.5-0.3c0.1,0,0.2,0,0.3,0c0,0,0,1.5,0,1.5c-0.1,0-0.2,0-0.3,0c-3.1,0-6.3,0.1-9.4,0.3
					c-2.1,0.2-4.7,0.5-8.7,0.9c-5.8,0.8-11.5,2.1-17.1,3.7l-0.2,0h-0.3C110.5,26.2,110.2,26.2,109.9,26.3z"/>
			</g>
			<g>
				<path class="st12" d="M115.1,26.3l-0.1,0c-1.8,0-3.1,0-4,0h-5.1l4.9-1.4c11.2-3.3,22.7-5,34.4-5c0.5,0,1,0,1.6,0
					c0,0,0,1.5,0,1.5c-0.3,0-0.6,0-0.9,0c-10.4-0.1-20.7,1.6-30.6,4.9L115.1,26.3z"/>
			</g>
			<g>
				<path class="st12" d="M121.6,26.3l-0.2,0c-2.5,0-4.7,0-6.5-0.1l-4.4,0l4.2-1.4c10.2-3.4,20.8-5.1,31.5-5c0.2,0,0.3,0,0.5,0
					l0,1.5c-0.3,0-0.6,0-0.9,0c-8.2,0-16.3,1.7-24.1,4.9L121.6,26.3z M119.8,24.8c0.5,0,1,0,1.5,0c1-0.4,1.9-0.8,2.9-1.1
					C122.8,24,121.3,24.4,119.8,24.8z"/>
			</g>
			<g>
				<path class="st12" d="M130,26.4l-12.1-0.1l3.3-1.4c8.3-3.5,16.9-5.2,25.6-5l0,1.5c-4.9,0.3-9.1,0.6-13.8,3.4
					c-0.2,0.1-0.5,0.3-0.8,0.5C131.6,25.7,130.9,26.2,130,26.4L130,26.4z M125.3,24.9l4.5,0c0.5-0.2,1.1-0.5,1.6-0.9
					c0.3-0.2,0.6-0.4,0.9-0.6c0.7-0.4,1.3-0.7,1.9-1C131.2,23,128.3,23.8,125.3,24.9z"/>
			</g>
			<g>
				<path class="st12" d="M140.3,26.5l-13.2-0.1l2.5-1.4c6.4-3.4,9-4.9,17.2-5.2l0.2,1.5c-2.5,0.5-3.4,0.7-6.4,4.9L140.3,26.5z
					 M132.8,25l6.7,0.1c1.1-1.6,2-2.6,2.8-3.4C138.6,22.2,136.2,23.2,132.8,25z"/>
			</g>
			<g>
				<path class="st12" d="M151.9,26.6l-13.4-0.2l0.9-1.2c2.6-3.5,3.8-5.1,7.4-5.5c1.9,0,3.4,1.9,4.8,5.8L151.9,26.6z M141.4,25.1
					l8.4,0.1c-1.4-3.5-2.5-3.8-3-3.8C144.3,21.6,143.3,22.6,141.4,25.1z"/>
			</g>
			<g>
				<path class="st12" d="M163.2,26.8l-12.9-0.2l-0.2-0.5c-1.5-4.3-2.8-4.8-3.3-4.8c-0.1,0-0.1-1.5-0.1-1.5c0,0,0.1,0,0.1,0
					c5,0,9.9,1.9,14.6,5.6L163.2,26.8z M151.4,25.2l7.4,0.1c-3-2-6.1-3.3-9.3-3.7C150.2,22.4,150.8,23.6,151.4,25.2z"/>
			</g>
			<g>
				<path class="st12" d="M173.2,26.9l-12.4-0.2l-0.2-0.2c-4.4-3.4-9-5.2-13.6-5.3c-0.1,0-0.1,0-0.2,0l0-1.5c0.1,0,0.2,0,0.2,0
					c7.9,0.1,15.7,2,23.2,5.6L173.2,26.9z M161.3,25.3l5.1,0.1c-3.2-1.3-6.4-2.3-9.6-3C158.3,23.2,159.8,24.2,161.3,25.3z"/>
			</g>
			<g>
				<path class="st12" d="M181.2,27.1l-11.4-0.2l-0.1-0.1c-7.2-3.5-14.8-5.4-22.4-5.5c-0.1,0-0.3,0-0.4,0c0,0,0-1.5,0-1.5
					c0.1,0,0.3,0,0.4,0c10.2,0.1,20.3,2.1,30,5.7L181.2,27.1z M170.1,25.4l2.3,0c-2-0.6-4.1-1.2-6.1-1.7
					C167.6,24.3,168.9,24.8,170.1,25.4z"/>
			</g>
			<g>
				<path class="st12" d="M186.6,27.2l-4.9-0.1c-1.1,0-2.7-0.1-4.7-0.1l-0.2,0c-9.4-3.5-19.2-5.4-29.1-5.6c-0.3,0-0.5,0-0.8,0l0-1.5
					c0.3,0,0.5,0,0.8,0c11.7,0.2,23.3,2.1,34.3,5.8L186.6,27.2z"/>
			</g>
			<g>
				<path class="st12" d="M183.5,27.1c-0.1,0-0.8,0-1.9-0.1l-0.2,0c-8.2-2.7-16.7-4.5-25.4-5.2c-2-0.1-4.2-0.2-6.2-0.3
					c-1.1,0-2.1-0.1-3.1-0.1l0-1.5c3.1,0,6.3,0.2,9.4,0.5c0.9,0.1,1.7,0.1,2.5,0.2c8.6,0.9,17,2.6,25.1,5.2L183.5,27.1z"/>
			</g>
			<g>
				<path class="st12" d="M183.5,27.1l-0.1,0c0,0-0.1,0-0.1,0c-3-0.9-5.2-1.5-7.1-2c-1.3-0.3-2.6-0.6-3.9-0.9
					c-3.3-0.7-6.9-1.2-13.7-2.2l0.2-1.5c4.6,0.5,9.2,1.2,13.7,2.2c1.4,0.3,2.7,0.6,4.2,1c2.4,0.6,4.7,1.3,7.1,2c0,0,0.1,0,0.1,0
					L183.5,27.1z"/>
			</g>
			<g>
				<path class="st12" d="M76.7,41.2l-0.1-0.6l-0.4-0.7c0,0,0,0,0.1,0l1.9-1.1c2.9-1.7,6.2-3.6,8.8-5c12.3-5.6,12.3-5.6,18.7-7.7
					l4.1-1.2c0.4,0,0.8,0,1.2,0h5.1l-4.9,1.4C99.9,29.5,89.1,34.5,79.2,41L79,41.1h-0.2C77.1,41.1,76.7,41.2,76.7,41.2z"/>
			</g>
			<g>
				<path class="st12" d="M86.6,41.2l-0.2,0c-3.4,0-5.9,0-7.6,0h-2.5l2.1-1.3c10.1-6.6,21-11.6,32.4-15l0.2,0c0.9,0,2.2,0,4,0l4.4,0
					l-4.2,1.4c-10,3.3-19.6,8.3-28.4,14.8L86.6,41.2z M81.3,39.7c1.4,0,3,0,4.9,0c7.4-5.4,15.4-9.8,23.6-13.1
					C99.8,29.7,90.2,34.1,81.3,39.7z"/>
			</g>
			<g>
				<path class="st12" d="M98.9,41.3l-0.3,0c-4.8,0-8.9-0.1-12.2-0.1l-2.2,0l1.8-1.3c9-6.6,18.7-11.6,28.8-15l0.1,0l0.1,0
					c1.8,0,3.9,0,6.5,0.1l3.6,0l-3.3,1.4c-8,3.3-15.6,8.3-22.6,14.8L98.9,41.3z M88.6,39.7c2.8,0,6.1,0,9.7,0.1
					c6.2-5.7,12.8-10.2,19.8-13.5c-1.1,0-2.1,0-3,0C105.9,29.4,97,33.9,88.6,39.7z"/>
			</g>
			<g>
				<path class="st12" d="M115,41.4l-0.4,0c-5.9-0.1-11.3-0.1-16-0.2l-1.9,0l1.4-1.3c7.2-6.6,14.9-11.7,23.1-15.1l0.1-0.1l11.1,0.1
					l-2.1,1.3c-5.3,3.3-10.4,8.3-15.1,14.8L115,41.4z M100.5,39.8c4.2,0,8.8,0.1,13.8,0.1c4.2-5.7,8.6-10.3,13.3-13.6l-5.9-0.1
					C114.2,29.4,107.1,34,100.5,39.8z"/>
			</g>
			<g>
				<path class="st12" d="M134.2,41.6l-0.6,0c-6.7-0.1-13.1-0.1-19-0.2l-1.4,0l0.8-1.1c4.8-6.7,10-11.8,15.5-15.2l0.2-0.1l11.5,0.1
					l-0.7,1.1c-2.2,3.4-4.3,8.4-6.2,14.9L134.2,41.6z M116.1,40c5.3,0.1,11,0.1,17,0.2c1.8-5.8,3.6-10.3,5.5-13.7l-8.5-0.1
					C125.2,29.5,120.5,34.1,116.1,40z"/>
			</g>
			<g>
				<path class="st12" d="M155.2,41.9l-22.6-0.3l0.3-0.9c2-6.7,4.1-11.8,6.4-15.3l0.2-0.3l11.8,0.1l0.2,0.5
					c1.3,3.5,2.5,8.7,3.5,15.4L155.2,41.9z M134.6,40.2l18.9,0.2c-1-5.9-2-10.5-3.2-13.8l-10-0.1C138.4,29.7,136.4,34.3,134.6,40.2z
					"/>
			</g>
			<g>
				<path class="st12" d="M175,42.1l-1.3,0c-6.1-0.1-12.6-0.2-19.4-0.2l-0.6,0l-0.1-0.6c-1.1-6.6-2.2-11.7-3.5-15.1l-0.4-1l11.5,0.1
					l0.2,0.2c4.6,3.6,8.9,8.8,12.9,15.6L175,42.1z M155,40.4c6.1,0.1,11.9,0.1,17.5,0.2c-3.6-6-7.5-10.6-11.6-13.9l-8.9-0.1
					C153,30,154,34.6,155,40.4z"/>
			</g>
			<g>
				<path class="st12" d="M192.3,42.4l-1.7,0c-5.1-0.1-10.7-0.2-16.8-0.2l-0.4,0l-0.2-0.4c-3.9-6.6-8.1-11.7-12.5-15.2l-1.7-1.3
					l11.2,0.2l0.1,0.1c7.4,3.6,14.4,8.9,20.9,15.6L192.3,42.4z M174.2,40.7c5.2,0.1,10.2,0.1,14.6,0.2c-5.9-6-12.3-10.7-19.1-14
					l-6.6-0.1C167,30.2,170.7,34.9,174.2,40.7z"/>
			</g>
			<g>
				<path class="st12" d="M206,42.6l-2.1,0c-3.8-0.1-8.3-0.1-13.3-0.2l-0.3,0l-0.2-0.2c-6.3-6.7-13.2-11.8-20.4-15.3l-3-1.4
					l10.6,0.2c9.6,3.6,18.7,8.9,27.2,15.7L206,42.6z M190.9,40.9c4,0.1,7.7,0.1,10.9,0.2c-7.8-6-16.2-10.8-24.9-14.1l-3.8-0.1
					C179.3,30.4,185.3,35.1,190.9,40.9z"/>
			</g>
			<g>
				<path class="st12" d="M215.3,42.8l-2.4-0.1c-2.1,0-5.2-0.1-8.9-0.2l-0.3,0l-0.2-0.2c-8.3-6.7-17.3-11.9-26.7-15.5l-4-1.5
					l4.2,0.1c2,0,3.6,0.1,4.7,0.1l0.2,0c11.1,3.6,21.7,8.9,31.4,15.7L215.3,42.8z M204.2,41.1c2.4,0,4.5,0.1,6.2,0.1
					c-9-6-18.7-10.8-28.9-14.1c-0.2,0-0.4,0-0.6,0C189.1,30.6,196.9,35.3,204.2,41.1z"/>
			</g>
			<g>
				<path class="st12" d="M219.4,43.1l-3-0.3c-0.1,0-0.6,0-3.6-0.1l-0.2,0l-0.2-0.1c-9.6-6.7-20-12-31-15.6l-4.7-1.5l4.9,0.1
					c1.2,0,1.9,0,2,0.1l0.1,0c11.7,3.7,22.8,9,33.1,15.8L219.4,43.1z M213.1,41.3c0.3,0,0.6,0,0.8,0c-2.8-1.8-5.6-3.4-8.5-5
					C208.1,37.9,210.6,39.5,213.1,41.3z"/>
			</g>
			<g>
				<path class="st12" d="M216.5,42.8l-0.2,0l-0.2-0.1c-0.3-0.2-0.7-0.4-1-0.7c-2.3-1.5-5.1-3.1-7.6-4.5l-1.7-1
					c-2.7-1.4-5.4-2.8-8.2-4c-2.2-0.9-5.2-2.1-10.3-4.1c-0.1,0-0.2-0.1-0.4-0.1l-3.3-1.1c-0.1,0-0.1,0-0.2-0.1l0.3-1.4l0.3,0.1
					c1.2,0.4,2.3,0.7,3.4,1.1l0.2,0.1c0,0,0.1,0,0.1,0c3.5,1.2,7,2.6,10.4,4.1c3.1,1.3,4.6,2.1,8.1,3.9l0.3,0.2
					c3.2,1.7,6.3,3.6,9.4,5.6c0.4,0.2,0.7,0.5,1.1,0.7c0,0-0.4,0.6-0.4,0.6L216.5,42.8z"/>
			</g>
			<g>
				<path class="st12" d="M49.1,64.5l-0.1-0.7l-0.6-0.5c0,0,0.1-0.1,0.1-0.1l6-6.3c9.9-8.9,9.9-8.9,15.3-12.8l6.2-4.2
					c0.2-0.2,0.2-0.2,2.6-0.2h2.5L79.2,41c-9.8,6.4-18.8,14.2-26.5,23.2l-0.2,0.3h-0.3C49.6,64.4,49.2,64.4,49.1,64.5z M69.7,46
					c-4.3,3.1-5,3.7-14,11.9L50.8,63c0.3,0,0.6,0,1,0C57.2,56.7,63.2,51,69.7,46z"/>
			</g>
			<g>
				<path class="st12" d="M63,64.5l-0.4,0c-4.7,0-8.3,0-10.6,0h-1.6l1.1-1.2c7.9-9.1,16.9-16.9,26.8-23.4l0.2-0.1h0.2
					c1.7,0,4.3,0,7.6,0l2.2,0L86.8,41c-8.7,6.4-16.7,14.2-23.6,23.2L63,64.5z M53.7,63c2.2,0,5.1,0,8.6,0
					c6.5-8.3,13.8-15.7,21.9-21.8c-2.2,0-3.9,0-5.2,0C69.7,47.2,61.2,54.6,53.7,63z"/>
			</g>
			<g>
				<path class="st12" d="M80.1,64.6l-0.4,0c-6.6-0.1-12.3-0.1-17-0.1l-1.5,0l0.9-1.2c7-9.1,15-17,23.8-23.4l0.2-0.1l0.2,0
					c3.4,0,7.5,0.1,12.2,0.1l1.9,0l-1.4,1.3c-7,6.4-13.3,14.2-18.8,23.2L80.1,64.6z M64.2,63c4.3,0,9.4,0.1,15.1,0.1
					c5.2-8.4,11.1-15.7,17.5-21.9c-3.9,0-7.3-0.1-10.2-0.1C78.4,47.3,70.8,54.6,64.2,63z"/>
			</g>
			<g>
				<path class="st12" d="M102.5,64.8l-0.5,0c-8.2-0.1-15.7-0.2-22.3-0.2l-1.3,0l0.7-1.1c5.6-9.1,12-17,19.1-23.5l0.2-0.2l0.3,0
					c4.8,0,10.2,0.1,16,0.2l1.4,0l-0.8,1.1c-4.7,6.4-8.9,14.3-12.6,23.2L102.5,64.8z M81,63.2c6.1,0.1,13,0.1,20.5,0.2
					c3.5-8.4,7.4-15.7,11.8-21.9c-5.2-0.1-10-0.1-14.3-0.1C92.3,47.4,86.3,54.7,81,63.2z"/>
			</g>
			<g>
				<path class="st12" d="M128.9,65.1l-0.6,0c-9.3-0.1-18.2-0.2-26.4-0.3l-1.1,0l0.4-1c3.8-9.1,8.1-17,12.8-23.5l0.2-0.3l0.4,0
					c5.9,0.1,12.3,0.1,19,0.2l1,0l-0.3,0.9c-1.9,6.5-3.7,14.3-5.3,23.4L128.9,65.1z M103.1,63.4c7.7,0.1,15.9,0.2,24.6,0.3
					c1.5-8.4,3.1-15.8,5-22c-6.2-0.1-12.1-0.1-17.6-0.2C110.6,47.6,106.6,54.9,103.1,63.4z"/>
			</g>
			<g>
				<path class="st12" d="M157.9,65.5l-30.5-0.4l0.1-0.9c1.6-9.1,3.4-17,5.3-23.6l0.2-0.5l21.9,0.3l0.1,0.6c1.1,6.5,2,14.5,2.8,23.6
					L157.9,65.5z M129.2,63.7l27.1,0.3c-0.7-8.5-1.6-15.9-2.6-22.1l-19.5-0.2C132.4,47.8,130.7,55.2,129.2,63.7z"/>
			</g>
			<g>
				<path class="st12" d="M185.1,65.8l-1,0c-8.5-0.1-17.5-0.2-26.9-0.3l-0.7,0l-0.1-0.7c-0.8-9.1-1.7-17-2.7-23.5l-0.1-0.9l0.9,0
					c6.8,0.1,13.3,0.2,19.4,0.2l0.4,0l0.2,0.4c3.9,6.6,7.4,14.6,10.4,23.8L185.1,65.8z M157.8,64c8.8,0.1,17.3,0.2,25.3,0.3
					c-2.8-8.5-6.1-16-9.7-22.2c-5.7-0.1-11.8-0.2-18.1-0.2C156.2,48.1,157.1,55.5,157.8,64z"/>
			</g>
			<g>
				<path class="st12" d="M208.7,66.1l-1.2,0c-7.1-0.1-14.9-0.2-23.4-0.3l-0.5,0l-0.2-0.5c-3-9.1-6.4-17-10.2-23.5l-0.7-1.1l1.3,0
					c6.1,0.1,11.8,0.2,16.8,0.2l0.3,0l0.2,0.2c6.3,6.7,12,14.7,17,23.9L208.7,66.1z M184.6,64.3c7.8,0.1,15,0.2,21.6,0.3
					c-4.7-8.5-10-16-15.9-22.3c-4.6-0.1-9.7-0.1-15.2-0.2C178.6,48.4,181.8,55.9,184.6,64.3z"/>
			</g>
			<g>
				<path class="st12" d="M227.4,66.4l-1.4,0c-5.2-0.1-11.5-0.2-18.5-0.3l-0.4,0l-0.2-0.4c-4.9-9.1-10.5-17-16.7-23.6l-1.2-1.3
					l1.7,0c5.1,0.1,9.6,0.1,13.3,0.2l0.3,0l0.2,0.2c8.3,6.7,15.7,14.8,22.2,24L227.4,66.4z M207.9,64.7c6.2,0.1,11.8,0.2,16.7,0.3
					c-6.1-8.6-13.1-16.1-20.9-22.4c-3.3-0.1-7.1-0.1-11.4-0.2C198.1,48.7,203.3,56.2,207.9,64.7z"/>
			</g>
			<g>
				<path class="st12" d="M240,66.7l-1.6,0c-3-0.1-7.2-0.1-12.4-0.2l-0.4,0l-0.2-0.3C219,57,211.6,49,203.5,42.4l-1.7-1.3l2.1,0
					c3.8,0.1,6.8,0.1,9,0.2l0.2,0l0.2,0.1c9.6,6.7,18.2,14.8,25.7,24L240,66.7z M226.4,64.9c4.2,0.1,7.7,0.1,10.5,0.2
					c-7.1-8.6-15.2-16.1-24.2-22.4c-1.7,0-3.9-0.1-6.6-0.1C213.6,48.9,220.4,56.5,226.4,64.9z"/>
			</g>
			<g>
				<path class="st12" d="M245.2,67l-1.8-0.2c-0.2,0-1.2-0.1-5-0.1l-0.3,0l-0.2-0.3c-7.4-9.1-15.9-17.1-25.4-23.8l-2-1.4l2.4,0.1
					c3,0.1,3.6,0.1,3.7,0.1l0.2,0l0.2,0.1c10.1,6.7,19.2,14.8,27.1,24.1L245.2,67z M238.8,65.2c1.4,0,2.4,0.1,3.1,0.1
					c-7.5-8.6-16.1-16.1-25.5-22.4c-0.2,0-0.5,0-1,0C223.9,49.1,231.8,56.7,238.8,65.2z"/>
			</g>
			<g>
				<path class="st12" d="M243.4,66.8l-0.3,0l-0.2-0.2c-0.2-0.3-0.5-0.6-0.7-0.9l-4.4-4.9c-2.4-2.5-5-5-7.6-7.3
					c-1.7-1.4-3.9-3.3-7.5-6.2c-0.3-0.3-0.7-0.5-1-0.8l-4.9-3.5c-0.2-0.1-0.4-0.2-0.6-0.4l-2.5-1.7l3.2,0.4l0.2,0.1l0.5,0.4
					c1.7,1.1,3.4,2.3,5,3.6l0.6,0.4c0.1,0.1,0.3,0.2,0.4,0.3c2.6,2,5.2,4.1,7.6,6.2c3,2.5,4,3.6,7,6.6l0.7,0.8
					c1.5,1.6,3,3.2,4.5,4.9l0.8,0.9l-0.5,0.5L243.4,66.8z"/>
			</g>
			<g>
				<path class="st12" d="M29,94.5L29,93.8l-0.7-0.4l2.4-4.8c6.8-11.5,6.8-11.5,10.8-16.9c0.6-0.7,1.2-1.5,1.9-2.3
					c1.7-2.1,3.6-4.4,5.2-6.3c0.3-0.3,0.3-0.3,3.6-0.3l1.6,0l-1.1,1.2c-7.8,9-14.3,19.1-19.4,29.9l-0.2,0.4h-0.5
					C29.7,94.5,29.1,94.5,29,94.5z M49.4,64.4c-1.5,1.7-3.3,4-4.9,6c-0.6,0.8-1.3,1.6-1.8,2.3c-4,5.3-4,5.3-10.6,16.7L30.1,93
					c0.5,0,1.2,0,2,0c4.9-10.3,11-19.9,18.4-28.6C49.9,64.4,49.6,64.4,49.4,64.4z"/>
			</g>
			<g>
				<path class="st12" d="M45.8,94.6l-0.5,0c-5.6,0-9.9-0.1-12.7-0.1h-1.2l0.5-1c5.1-11,11.7-21.1,19.6-30.2l0.2-0.3h0.3
					c2.3,0,5.9,0,10.6,0l1.5,0l-0.9,1.2c-6.9,9-12.7,19.1-17.2,29.9L45.8,94.6z M33.8,93c2.7,0,6.4,0,11.1,0.1
					c4.3-10.3,9.8-19.9,16.4-28.6c-3.7,0-6.7,0-8.8,0C45,73.1,38.7,82.7,33.8,93z"/>
			</g>
			<g>
				<path class="st12" d="M66.3,94.7l-0.5,0c-8-0.1-14.9-0.1-20.5-0.2l-1.1,0l0.4-1c4.6-11,10.4-21.1,17.4-30.2l0.2-0.3l0.4,0
					c4.7,0,10.4,0.1,17,0.1l1.3,0l-0.7,1.1c-5.5,9-10.2,19.1-13.8,30L66.3,94.7z M46.4,93.1c5.3,0,11.6,0.1,18.8,0.2
					c3.5-10.3,7.9-20,13.1-28.6c-5.9-0.1-11.1-0.1-15.4-0.1C56.4,73.1,50.8,82.7,46.4,93.1z"/>
			</g>
			<g>
				<path class="st12" d="M93.2,95l-0.6,0c-9.8-0.1-18.8-0.2-26.8-0.3l-1,0l0.3-1c3.7-11,8.4-21.1,14-30.3l0.2-0.4l0.4,0
					c6.6,0.1,14.1,0.1,22.3,0.2l1.1,0l-0.4,1c-3.7,9.1-6.9,19.2-9.3,30L93.2,95z M66.8,93.3c7.5,0.1,16,0.2,25.2,0.2
					c2.4-10.3,5.3-20,8.9-28.7c-7.6-0.1-14.6-0.1-20.8-0.2C74.8,73.3,70.4,82.9,66.8,93.3z"/>
			</g>
			<g>
				<path class="st12" d="M125,95.3l-0.7,0c-11.2-0.1-21.9-0.2-31.7-0.3l-0.9,0l0.2-0.9c2.5-11,5.6-21.1,9.4-30.3l0.2-0.5l0.5,0
					c8.2,0.1,17,0.2,26.4,0.3l0.9,0l-0.1,0.9c-1.6,9.1-2.9,19.2-4,30.2L125,95.3z M93.5,93.5c9.4,0.1,19.5,0.2,30.1,0.3
					c1-10.4,2.3-20,3.8-28.7c-8.8-0.1-17.2-0.2-25-0.3C98.9,73.5,95.9,83.2,93.5,93.5z"/>
			</g>
			<g>
				<path class="st12" d="M159.7,95.7l-36.2-0.4l0.1-0.8c1.1-10.9,2.4-21.1,4-30.3l0.1-0.6l30.1,0.4l0.1,0.7
					c0.8,9.1,1.4,19.3,1.8,30.3L159.7,95.7z M125.1,93.9l33.1,0.4c-0.4-10.4-1-20.1-1.7-28.8l-27.5-0.3
					C127.4,73.8,126.2,83.5,125.1,93.9z"/>
			</g>
			<g>
				<path class="st12" d="M192.2,96.2l-0.9,0c-10.2-0.1-21.1-0.3-32.4-0.4l-0.7,0l0-0.7c-0.4-10.9-1.1-21.1-1.8-30.2l-0.1-0.8l0.8,0
					c9.4,0.1,18.5,0.2,26.9,0.3l0.5,0l0.2,0.5c3,9.2,5.5,19.4,7.3,30.5L192.2,96.2z M159.7,94.3c10.8,0.1,21.1,0.3,30.8,0.4
					c-1.8-10.4-4.1-20.1-7-28.9c-8.1-0.1-16.7-0.2-25.6-0.3C158.6,74.2,159.2,83.9,159.7,94.3z"/>
			</g>
			<g>
				<path class="st12" d="M220.5,96.6l-1,0c-8.5-0.1-17.9-0.3-28.1-0.4l-0.6,0l-0.1-0.6c-1.9-10.9-4.3-21.1-7.3-30.2l-0.3-1l1,0
					c8.5,0.1,16.3,0.2,23.4,0.3l0.4,0l0.2,0.4c4.9,9.2,9,19.5,12.1,30.6L220.5,96.6z M192,94.7c9.6,0.1,18.5,0.3,26.5,0.4
					c-3-10.4-6.9-20.2-11.5-28.9c-6.7-0.1-14-0.2-21.9-0.3C187.9,74.6,190.2,84.3,192,94.7z"/>
			</g>
			<g>
				<path class="st12" d="M242.9,96.9l-1.1,0c-6.3-0.1-13.8-0.2-22.3-0.3l-0.5,0l-0.1-0.5c-3.1-10.9-7.1-21.1-12-30.3l-0.6-1.1
					l1.2,0c7.1,0.1,13.3,0.2,18.5,0.3l0.4,0l0.2,0.3c6.5,9.3,11.8,19.6,15.9,30.6L242.9,96.9z M220.1,95.1
					c7.8,0.1,14.7,0.2,20.7,0.3c-3.9-10.4-9-20.2-15.1-29c-4.8-0.1-10.5-0.2-16.9-0.3C213.3,75,217.1,84.7,220.1,95.1z"/>
			</g>
			<g>
				<path class="st12" d="M257.9,97.2l-1.1,0c-3.6-0.1-8.7-0.2-15-0.3l-0.5,0l-0.2-0.5c-4-10.9-9.3-21.1-15.7-30.3l-0.8-1.2l1.4,0
					c5.2,0.1,9.4,0.2,12.4,0.2l0.3,0l0.2,0.3c7.5,9.3,13.7,19.6,18.5,30.7L257.9,97.2z M242.3,95.4c5.4,0.1,9.9,0.2,13.3,0.2
					c-4.6-10.5-10.5-20.2-17.6-29c-2.7-0.1-6.3-0.1-10.7-0.2C233.4,75.3,238.4,85,242.3,95.4z"/>
			</g>
			<g>
				<path class="st12" d="M264.1,97.5l-1.3-0.1c-0.2,0-1.3-0.1-6.1-0.2l-0.5,0l-0.2-0.4c-4.7-11-10.8-21.2-18.2-30.3l-1-1.2l1.6,0
					c4.1,0.1,4.9,0.1,5.1,0.2l0.3,0l0.2,0.2c7.9,9.3,14.5,19.6,19.5,30.7L264.1,97.5z M257.2,95.7c2.3,0,3.6,0.1,4.5,0.1
					c-4.8-10.5-11.1-20.2-18.6-29c-0.4,0-1.3,0-3.2-0.1C246.9,75.5,252.7,85.3,257.2,95.7z"/>
			</g>
			<g>
				<path class="st12" d="M262.8,97.3l-0.4-0.1l-0.2-0.4c-2.2-4.8-4.6-9.5-7.4-14c-1.1-1.6-2.4-3.8-4.4-6.7
					c-0.9-1.2-1.8-2.5-2.7-3.7c-0.9-1.2-2-2.5-2.9-3.7c-0.4-0.5-0.8-1-1.1-1.4c-0.3-0.3-0.5-0.6-0.8-0.9l-1.2-1.4l2.1,0.2l0.2,0.2
					c0.2,0.3,0.5,0.6,0.7,0.9c1.4,1.7,2.8,3.4,4.1,5.2c0.7,0.9,1.4,1.8,2,2.7c0.2,0.4,0.5,0.7,0.7,1.1c1.6,2.2,3,4.5,4.4,6.8
					c2.5,3.9,3.2,5.2,5.2,9.3l2.3,4.9c0,0,0,0.1,0,0.1l-0.7,0.3L262.8,97.3z"/>
			</g>
			<g>
				<path class="st12" d="M18,129.8l-0.1-0.7l-0.8-0.1c0,0,0-0.1,0-0.1l0.3-1.7c2.9-13.4,2.9-13.4,5.2-19.9
					c1.3-3.3,3.7-9.4,5.7-13.7c0.2-0.5,0.2-0.5,4.4-0.5h1.2l-0.5,1c-5.2,11.1-8.8,22.9-10.7,35l-0.1,0.6h-0.6
					C18.6,129.7,18.1,129.7,18,129.8z M29.4,94.5c-1.9,4.2-4.2,10-5.4,13.2c-2.2,6.4-2.2,6.4-5.1,19.7l-0.1,0.9c0.6,0,1.4,0,2.5,0
					c1.9-11.7,5.3-23,10.2-33.8C30.3,94.5,29.7,94.5,29.4,94.5z"/>
			</g>
			<g>
				<path class="st12" d="M36.4,129.8l-0.6,0c-6.1,0-10.8-0.1-13.9-0.1H21l0.1-0.8c1.9-12.3,5.6-24.2,10.8-35.4l0.2-0.4h0.5
					c2.8,0,7.1,0,12.7,0.1l1.1,0l-0.4,1c-4.6,11.1-7.8,22.9-9.5,35L36.4,129.8z M22.7,128.2c2.9,0,7.1,0,12.4,0.1
					c1.7-11.7,4.8-23,9.1-33.8c-4.8,0-8.6,0-11.2-0.1C28.1,105.2,24.6,116.6,22.7,128.2z"/>
			</g>
			<g>
				<path class="st12" d="M58.8,130l-0.7,0c-8.7-0.1-16.2-0.1-22.3-0.2l-0.8,0l0.1-0.8c1.7-12.3,5-24.2,9.6-35.4l0.2-0.5l0.5,0
					c5.6,0,12.5,0.1,20.5,0.2l1,0l-0.3,1c-3.7,11.1-6.3,22.9-7.7,35.1L58.8,130z M36.6,128.3c5.8,0,12.8,0.1,20.8,0.2
					c1.4-11.7,3.8-23,7.4-33.8c-7.3-0.1-13.7-0.1-19-0.2C41.4,105.3,38.3,116.6,36.6,128.3z"/>
			</g>
			<g>
				<path class="st12" d="M88,130.3l-0.7,0c-10.7-0.1-20.6-0.2-29.2-0.3l-0.8,0l0.1-0.8c1.4-12.3,4-24.2,7.7-35.4l0.2-0.5l0.5,0
					c8,0.1,17,0.2,26.8,0.3l0.9,0l-0.2,0.9c-2.5,11.1-4.3,23-5.3,35.2L88,130.3z M58.9,128.5c8.3,0.1,17.6,0.2,27.7,0.3
					c1-11.7,2.7-23.1,5-33.8c-9.3-0.1-17.8-0.2-25.4-0.2C62.8,105.4,60.3,116.8,58.9,128.5z"/>
			</g>
			<g>
				<path class="st12" d="M122.6,130.6l-0.7,0c-12.3-0.1-23.9-0.3-34.6-0.4l-0.8,0l0.1-0.8c1-12.3,2.8-24.2,5.3-35.4l0.1-0.6l0.6,0
					c9.8,0.1,20.5,0.2,31.7,0.3l0.8,0l-0.1,0.8c-1.1,11.2-1.9,23-2.4,35.3L122.6,130.6z M88.1,128.8c10.3,0.1,21.4,0.2,33.1,0.4
					c0.5-11.7,1.2-23.1,2.3-33.8c-10.7-0.1-20.9-0.2-30.3-0.3C90.8,105.7,89.1,117.1,88.1,128.8z"/>
			</g>
			<g>
				<path class="st12" d="M160.4,131.1l-39.3-0.5l0-0.8c0.5-12.2,1.3-24.1,2.4-35.3l0.1-0.7l36,0.4l0,0.7
					c0.5,11.2,0.7,23.1,0.8,35.4L160.4,131.1z M122.7,129.2l36.3,0.4c-0.1-11.7-0.3-23.1-0.7-33.9L125,95.3
					C123.9,106.1,123.2,117.5,122.7,129.2z"/>
			</g>
			<g>
				<path class="st12" d="M195.9,131.5l-0.8,0c-11.1-0.1-23-0.3-35.4-0.5l-0.7,0l0-0.7c-0.1-12.2-0.3-24.1-0.8-35.3l0-0.8l0.8,0
					c11.4,0.1,22.3,0.3,32.4,0.4l0.6,0l0.1,0.6c1.9,11.3,3.2,23.2,3.7,35.5L195.9,131.5z M160.4,129.6c11.8,0.1,23.2,0.3,33.9,0.4
					c-0.6-11.7-1.8-23.1-3.6-33.9c-9.8-0.1-20.2-0.3-31-0.4C160.1,106.5,160.4,117.9,160.4,129.6z"/>
			</g>
			<g>
				<path class="st12" d="M226.6,132l-0.8,0c-9.3-0.1-19.6-0.3-30.7-0.4l-0.7,0l0-0.7c-0.6-12.2-1.8-24.1-3.7-35.3l-0.1-0.9l0.9,0
					c10.2,0.1,19.6,0.3,28.1,0.4l0.5,0l0.1,0.5c3.2,11.3,5.3,23.2,6.3,35.5L226.6,132z M195.8,130.1c10.5,0.1,20.3,0.3,29.2,0.4
					c-1-11.7-3-23.1-6-33.9c-8.1-0.1-17.1-0.2-26.7-0.4C194,106.9,195.2,118.3,195.8,130.1z"/>
			</g>
			<g>
				<path class="st12" d="M250.9,132.3l-0.8,0c-6.9-0.1-15.1-0.2-24.3-0.4l-0.7,0l-0.1-0.7c-1-12.2-3.1-24.1-6.2-35.3l-0.3-0.9l1,0
					c8.5,0.1,16,0.2,22.3,0.3l0.5,0l0.2,0.5c4.2,11.3,7,23.3,8.3,35.6L250.9,132.3z M226.4,130.5c8.6,0.1,16.3,0.2,22.8,0.3
					c-1.4-11.7-4-23.2-8-34c-5.9-0.1-12.9-0.2-20.8-0.3C223.4,107.4,225.4,118.8,226.4,130.5z"/>
			</g>
			<g>
				<path class="st12" d="M267.2,132.6l-0.9,0c-3.9-0.1-9.4-0.2-16.3-0.3l-0.6,0l-0.1-0.6c-1.3-12.2-4.1-24.1-8.3-35.3l-0.4-1l1.1,0
					c6.3,0.1,11.4,0.2,15,0.3l0.5,0l0.2,0.4c4.9,11.3,8.1,23.3,9.7,35.7L267.2,132.6z M250.7,130.9c6.1,0.1,11.1,0.2,14.8,0.3
					c-1.6-11.7-4.7-23.2-9.3-34c-3.3-0.1-7.9-0.2-13.4-0.2C246.8,107.7,249.4,119.1,250.7,130.9z"/>
			</g>
			<g>
				<path class="st12" d="M273.9,132.9l-0.9-0.1c-0.3,0-1.6-0.1-6.6-0.2l-0.6,0l-0.1-0.6c-1.6-12.2-4.8-24.1-9.6-35.3l-0.4-1l1.1,0
					c5.6,0.1,6,0.2,6.2,0.2l0.4,0l0.2,0.4c5.1,11.3,8.6,23.4,10.3,35.7L273.9,132.9z M267.1,131.2c2.9,0.1,4.4,0.1,5.2,0.1
					c-1.7-11.7-5-23.2-9.9-34c-0.6,0-1.8-0.1-4.5-0.1C262.4,108,265.5,119.4,267.1,131.2z"/>
			</g>
			<g>
				<path class="st12" d="M273,132.8l-0.6-0.1l-0.1-0.6c-0.6-4.4-1.4-8.8-2.5-13.1c-0.5-1.7-1-3.8-1.8-6.6c-0.5-1.6-1-3.2-1.6-4.8
					c-1-2.8-2.3-6-3.6-9.2c-0.2-0.5-0.5-1-0.7-1.6l-0.5-1.2l1.7,0.2l0.2,0.5c0.2,0.5,0.4,1,0.6,1.5c1.3,3.1,2.6,6.2,3.7,9.4
					c0.4,1,0.7,2,1,2.9c0.2,0.7,0.4,1.3,0.5,1.9c0.7,2.2,1.3,4.4,1.8,6.7c1.4,5.2,1.6,6.6,2.3,11.5l0.3,1.8c0,0,0,0.1,0,0.1
					l-0.7,0.1L273,132.8z"/>
			</g>
			<g>
				<path class="st12" d="M16.8,169.1l-0.2-1.8c-0.6-6.3-1.1-13.9-1.2-19.2c0.3-6.5,1-14,1.6-19.2c0.1-0.7,0.1-0.7,4.8-0.7h0.9
					l-0.1,0.8c-1,6.2-1.5,12.6-1.6,19c-0.1,6.4,0.3,12.8,1.1,19l0.1,0.8h-0.8c-2.3,0-3.3,0-3.7,0L16.8,169.1z M18.5,129.7
					c-0.6,5.1-1.2,12.3-1.6,18.4c0.1,5,0.5,12.1,1.1,18.3c0.5,0,1.3,0,2.5,0c-0.8-6.1-1.1-12.2-1-18.4c0.1-6.1,0.6-12.3,1.5-18.3
					C19.7,129.7,18.9,129.7,18.5,129.7z"/>
			</g>
			<g>
				<path class="st12" d="M36.1,168l-0.8,0c-6.1,0-10.8-0.1-13.9-0.1h-0.6l-0.1-0.6c-0.8-6.3-1.2-12.8-1.1-19.2
					c0.1-6.4,0.6-12.9,1.6-19.2l0.1-0.6h0.6c3.1,0,7.8,0,13.9,0.1l0.8,0l-0.1,0.8c-0.9,6.2-1.4,12.6-1.4,19c-0.1,6.4,0.3,12.8,1,19
					L36.1,168z M22.1,166.4c2.9,0,7.1,0,12.4,0.1c-0.7-6.1-1-12.2-0.9-18.4c0.1-6.1,0.5-12.3,1.3-18.3c-5.3,0-9.5-0.1-12.4-0.1
					c-0.9,6-1.4,12.2-1.5,18.3C20.9,154.2,21.3,160.4,22.1,166.4z"/>
			</g>
			<g>
				<path class="st12" d="M58.4,168.1l-0.8,0c-8.7-0.1-16.2-0.1-22.3-0.2l-0.6,0l-0.1-0.6c-0.7-6.3-1.1-12.8-1-19.2
					c0.1-6.4,0.6-12.9,1.4-19.2l0.1-0.6l0.6,0c6.1,0,13.7,0.1,22.3,0.2l0.8,0l-0.1,0.8c-0.7,6.2-1.1,12.6-1.2,19
					c-0.1,6.4,0.2,12.8,0.7,19L58.4,168.1z M36,166.5c5.8,0,12.8,0.1,20.9,0.2c-0.5-6-0.7-12.2-0.7-18.4c0.1-6.1,0.4-12.3,1.1-18.3
					c-8-0.1-15.1-0.1-20.9-0.2c-0.8,6-1.3,12.2-1.3,18.3C35,154.3,35.3,160.4,36,166.5z"/>
			</g>
			<g>
				<path class="st12" d="M87.6,168.4l-0.8,0c-10.7-0.1-20.6-0.2-29.2-0.3l-0.7,0l-0.1-0.7c-0.6-6.3-0.8-12.7-0.7-19.2
					c0.1-6.4,0.5-12.9,1.2-19.2l0.1-0.7l0.7,0c8.7,0.1,18.5,0.2,29.2,0.3l0.8,0l-0.1,0.8c-0.5,6.3-0.8,12.7-0.9,19
					c-0.1,6.4,0.1,12.8,0.4,19L87.6,168.4z M58.3,166.7c8.3,0.1,17.6,0.2,27.8,0.3c-0.3-6-0.4-12.2-0.4-18.4
					c0.1-6.1,0.3-12.3,0.8-18.3c-10.1-0.1-19.5-0.2-27.8-0.3c-0.7,6-1,12.2-1.1,18.3C57.6,154.5,57.8,160.6,58.3,166.7z"/>
			</g>
			<g>
				<path class="st12" d="M122.2,168.8l-0.8,0c-12.3-0.1-23.9-0.3-34.6-0.4l-0.7,0l0-0.7c-0.4-6.3-0.5-12.7-0.4-19.1
					c0.1-6.4,0.4-12.8,0.9-19.1l0.1-0.7l0.7,0c10.7,0.1,22.3,0.2,34.6,0.4l0.8,0l0,0.8c-0.2,6.3-0.4,12.7-0.5,19.1
					c-0.1,6.4-0.1,12.8,0,19.1L122.2,168.8z M87.6,167c10.3,0.1,21.4,0.2,33.2,0.4c-0.1-6-0.1-12.2,0-18.4
					c0.1-6.1,0.2-12.3,0.5-18.4c-11.7-0.1-22.8-0.3-33.2-0.4c-0.5,6-0.7,12.2-0.8,18.3C87.1,154.8,87.2,160.9,87.6,167z"/>
			</g>
			<g>
				<path class="st12" d="M160,169.3l-39.2-0.5l0-0.7c-0.1-6.3-0.1-12.7,0-19.1c0.1-6.4,0.2-12.8,0.5-19.1l0-0.7l39.2,0.5l0,0.7
					c0,6.3,0,12.7-0.1,19.1c-0.1,6.4-0.2,12.8-0.4,19.1L160,169.3z M122.2,167.3l36.3,0.4c0.2-6,0.3-12.2,0.4-18.4
					c0.1-6.1,0.1-12.3,0.1-18.4l-36.3-0.4c-0.2,6-0.4,12.2-0.5,18.4C122.1,155.1,122.1,161.3,122.2,167.3z"/>
			</g>
			<g>
				<path class="st12" d="M195.3,169.7l-0.7,0c-11.1-0.1-23-0.3-35.4-0.5l-0.7,0l0-0.7c0.2-6.3,0.3-12.7,0.4-19.1
					c0.1-6.4,0.1-12.8,0.1-19.1l0-0.7l0.7,0c12.4,0.2,24.3,0.3,35.4,0.5l0.7,0l0,0.7c0.3,6.3,0.4,12.7,0.3,19.1
					c-0.1,6.4-0.3,12.8-0.8,19.1L195.3,169.7z M160,167.8c11.9,0.1,23.3,0.3,33.9,0.4c0.4-6,0.7-12.2,0.7-18.3
					c0.1-6.1,0-12.3-0.3-18.4c-10.7-0.1-22.1-0.3-33.9-0.4c0,6.1,0,12.2-0.1,18.4C160.3,155.6,160.2,161.8,160,167.8z"/>
			</g>
			<g>
				<path class="st12" d="M226,170.1l-0.7,0c-9.3-0.1-19.6-0.3-30.7-0.4l-0.8,0l0.1-0.8c0.4-6.3,0.7-12.7,0.8-19
					c0.1-6.4,0-12.8-0.3-19.1l0-0.8l0.8,0c11.1,0.1,21.4,0.3,30.7,0.4l0.7,0l0.1,0.7c0.5,6.3,0.7,12.8,0.7,19.2
					c-0.1,6.4-0.5,12.8-1.1,19.1L226,170.1z M195.4,168.2c10.5,0.1,20.4,0.3,29.2,0.4c0.6-6,1-12.2,1-18.3
					c0.1-6.1-0.1-12.3-0.6-18.4c-8.9-0.1-18.7-0.3-29.2-0.4c0.3,6,0.4,12.2,0.3,18.4C196.1,156,195.8,162.2,195.4,168.2z"/>
			</g>
			<g>
				<path class="st12" d="M250.3,170.5l-0.7,0c-6.9-0.1-15.1-0.2-24.3-0.4l-0.8,0l0.1-0.8c0.7-6.3,1-12.7,1.1-19
					c0.1-6.4-0.1-12.8-0.7-19l-0.1-0.8l0.8,0c9.3,0.1,17.5,0.3,24.3,0.4l0.6,0l0.1,0.6c0.7,6.3,1,12.8,0.9,19.2
					c-0.1,6.4-0.5,12.9-1.4,19.2L250.3,170.5z M226.1,168.7c8.6,0.1,16.3,0.2,22.9,0.3c0.8-6,1.2-12.2,1.3-18.3
					c0.1-6.1-0.2-12.3-0.9-18.4c-6.5-0.1-14.2-0.2-22.9-0.3c0.5,6.1,0.7,12.2,0.6,18.4C227.1,156.5,226.7,162.6,226.1,168.7z"/>
			</g>
			<g>
				<path class="st12" d="M266.6,170.8l-0.6,0c-3.9-0.1-9.4-0.2-16.3-0.3l-0.8,0l0.1-0.8c0.8-6.2,1.3-12.6,1.4-19
					c0.1-6.4-0.2-12.8-0.9-19l-0.1-0.8l0.8,0c6.9,0.1,12.4,0.2,16.3,0.3l0.6,0l0.1,0.6c0.8,6.3,1.2,12.8,1.1,19.2
					c-0.1,6.4-0.6,12.9-1.6,19.2L266.6,170.8z M250.5,169c6.1,0.1,11.1,0.2,14.9,0.3c0.9-6,1.4-12.2,1.5-18.3
					c0.1-6.1-0.3-12.3-1-18.4c-3.7-0.1-8.7-0.2-14.8-0.3c0.6,6.1,0.9,12.2,0.8,18.4C251.7,156.9,251.2,163,250.5,169z"/>
			</g>
			<g>
				<path class="st12" d="M273.2,171.1l-0.7-0.1c-0.2,0-1.4-0.1-6.6-0.2l-0.8,0l0.1-0.8c1-6.2,1.5-12.6,1.6-19
					c0.1-6.4-0.3-12.8-1.1-19l-0.1-0.8l0.9,0c6.1,0.1,6.6,0.2,6.7,0.2l0.6,0.1l0.1,0.6c0.9,6.3,1.3,12.8,1.2,19.2
					c-0.1,6.4-0.6,12.9-1.6,19.2L273.2,171.1z M266.8,169.3c3.1,0.1,4.5,0.1,5.2,0.1c0.9-6,1.4-12.2,1.5-18.3
					c0.1-6.2-0.3-12.3-1.1-18.4c-0.7,0-2.2-0.1-5.2-0.1c0.7,6,1.1,12.2,1,18.4C268.2,157.1,267.7,163.3,266.8,169.3z"/>
			</g>
			<g>
				<path class="st12" d="M273.2,172.3l-0.9-1.4l-0.5-0.1l0.1-0.7c0.1-0.8,0.2-1.5,0.3-2.3c0.5-4.3,0.9-9.7,1.2-14.7
					c0-0.7,0-1.3,0-2c0-0.8,0-1.6,0-2.3c-0.2-4.4-0.5-9.8-0.9-14.7c-0.1-0.6-0.2-1.3-0.2-1.9l-0.1-0.9l1.6,0.2l0.1,0.7
					c0.1,0.6,0.1,1.2,0.2,1.8c0.6,5,0.9,10,0.9,15c0,0.8,0,1.6,0.1,2.3c0,0.7-0.1,1.3-0.1,2c-0.1,5-0.6,9.9-1.2,14.8
					c-0.1,0.8-0.2,1.6-0.3,2.3L273.2,172.3z"/>
			</g>
			<g>
				<path class="st12" d="M27.5,204.4l-2.9-6.8c-4.5-12.8-4.5-12.8-6-19.5c-0.2-1-0.4-2-0.6-3.1c-0.5-2.5-1-5.4-1.3-7.6l0-0.3
					l0.2-0.3c0.3-0.3,0.3-0.3,4.6-0.3h0.6l0.1,0.6c1.6,12.2,4.9,24.1,9.8,35.3l0.5,1h-1.1c-1.9,0-2.8,0-3.3,0L27.5,204.4z
					 M18.2,167.9c0.3,2.1,0.8,4.5,1.2,6.8c0.2,1.1,0.4,2.2,0.6,3.1c1.5,6.6,1.5,6.6,6,19.3l2.1,4.9c0.4,0,1.1,0,2.1,0
					c-4.6-10.9-7.8-22.3-9.4-34.1C19.5,167.9,18.7,167.9,18.2,167.9z"/>
			</g>
			<g>
				<path class="st12" d="M45.1,203.5l-1.1,0c-5.6,0-9.9-0.1-12.7-0.1h-0.5l-0.2-0.4c-5-11.4-8.3-23.4-10-35.7l-0.1-0.8h0.8
					c3.1,0,7.8,0,13.9,0.1l0.6,0l0.1,0.6c1.4,12.2,4.3,24.1,8.7,35.3L45.1,203.5z M31.8,201.9c2.6,0,6.4,0,11.2,0.1
					c-4.1-10.8-6.9-22.3-8.3-34c-5.3,0-9.5-0.1-12.4-0.1C23.9,179.7,27.1,191.1,31.8,201.9z"/>
			</g>
			<g>
				<path class="st12" d="M65.5,203.6l-1,0c-8-0.1-14.9-0.1-20.5-0.2l-0.5,0l-0.2-0.5c-4.4-11.3-7.3-23.4-8.8-35.7l-0.1-0.8l0.8,0
					c6.1,0,13.7,0.1,22.3,0.2l0.7,0l0.1,0.7c1.1,12.2,3.4,24.1,6.8,35.3L65.5,203.6z M44.5,202c5.3,0,11.7,0.1,19,0.2
					c-3.2-10.8-5.5-22.3-6.5-34c-8-0.1-15-0.1-20.8-0.2C37.6,179.7,40.4,191.2,44.5,202z"/>
			</g>
			<g>
				<path class="st12" d="M92.2,203.9l-0.9,0c-9.8-0.1-18.8-0.2-26.8-0.3l-0.5,0l-0.2-0.5c-3.5-11.3-5.8-23.3-6.9-35.6l-0.1-0.8
					l0.8,0c8.7,0.1,18.5,0.2,29.2,0.3l0.7,0l0,0.7c0.7,12.2,2.2,24.1,4.4,35.4L92.2,203.9z M65.1,202.2c7.6,0.1,16.1,0.2,25.4,0.2
					c-2.1-10.8-3.5-22.3-4.2-34c-10.1-0.1-19.4-0.2-27.7-0.3C59.6,179.9,61.8,191.3,65.1,202.2z"/>
			</g>
			<g>
				<path class="st12" d="M123.8,204.3l-0.8,0c-11.2-0.1-21.9-0.2-31.7-0.3l-0.6,0l-0.1-0.6c-2.3-11.3-3.8-23.3-4.4-35.6l0-0.8
					l0.8,0c10.7,0.1,22.3,0.2,34.6,0.4l0.7,0l0,0.7c0.2,12.2,0.7,24.1,1.5,35.4L123.8,204.3z M91.9,202.4c9.4,0.1,19.6,0.2,30.3,0.3
					c-0.8-10.8-1.3-22.2-1.5-34c-11.7-0.1-22.8-0.3-33.1-0.4C88.3,180.2,89.8,191.6,91.9,202.4z"/>
			</g>
			<g>
				<path class="st12" d="M158.3,204.7l-36-0.4l0-0.7c-0.8-11.3-1.4-23.2-1.5-35.5l0-0.8l39.3,0.5l0,0.7
					c-0.4,12.3-0.9,24.2-1.6,35.4L158.3,204.7z M123.7,202.8l33.3,0.4c0.7-10.8,1.2-22.2,1.5-33.9l-36.3-0.4
					C122.4,180.5,122.9,192,123.7,202.8z"/>
			</g>
			<g>
				<path class="st12" d="M190.7,205.1l-0.6,0c-10.2-0.1-21.1-0.3-32.4-0.4l-0.8,0l0-0.8c0.7-11.2,1.3-23.1,1.6-35.4l0-0.7l0.7,0
					c12.4,0.2,24.3,0.3,35.4,0.5l0.8,0l-0.1,0.8c-0.9,12.3-2.4,24.2-4.6,35.5L190.7,205.1z M158.4,203.2c10.9,0.1,21.3,0.3,31,0.4
					c2.1-10.8,3.5-22.2,4.4-33.9c-10.7-0.1-22-0.3-33.9-0.4C159.6,181,159.1,192.4,158.4,203.2z"/>
			</g>
			<g>
				<path class="st12" d="M218.7,205.5l-0.6,0c-8.5-0.1-17.9-0.3-28.1-0.4l-0.9,0l0.2-0.9c2.2-11.2,3.7-23.1,4.5-35.3l0-0.7l0.7,0
					c11.1,0.1,21.4,0.3,30.7,0.4l0.8,0l-0.1,0.8c-1.3,12.3-3.7,24.2-7.2,35.5L218.7,205.5z M191,203.6c9.6,0.1,18.6,0.3,26.7,0.4
					c3.3-10.8,5.6-22.1,6.8-33.9c-8.9-0.1-18.7-0.3-29.2-0.4C194.5,181.4,193,192.8,191,203.6z"/>
			</g>
			<g>
				<path class="st12" d="M241,205.8l-0.5,0c-6.3-0.1-13.8-0.2-22.3-0.3l-1,0l0.3-0.9c3.4-11.2,5.8-23,7.1-35.2l0.1-0.7l0.7,0
					c9.3,0.1,17.5,0.3,24.3,0.4l0.8,0l-0.1,0.8c-1.6,12.3-4.7,24.2-9.2,35.5L241,205.8z M219.2,204c7.9,0.1,14.9,0.2,20.8,0.3
					c4.2-10.7,7.2-22.1,8.8-33.8c-6.5-0.1-14.2-0.2-22.8-0.3C224.7,181.9,222.4,193.2,219.2,204z"/>
			</g>
			<g>
				<path class="st12" d="M255.9,206.1l-0.5,0c-3.6-0.1-8.7-0.2-15-0.3l-1.1,0l0.4-1c4.4-11.1,7.5-22.9,9.1-35.1l0.1-0.6l0.7,0
					c6.9,0.1,12.4,0.2,16.3,0.3l0.8,0l-0.1,0.8c-1.9,12.3-5.4,24.2-10.6,35.5L255.9,206.1z M241.6,204.4c5.5,0.1,10.1,0.2,13.4,0.2
					c4.9-10.7,8.3-22.1,10.1-33.8c-3.7-0.1-8.7-0.2-14.8-0.3C248.7,182.2,245.7,193.6,241.6,204.4z"/>
			</g>
			<g>
				<path class="st12" d="M262,206.3l-0.5-0.1c-0.3,0-1.5-0.1-6.1-0.2l-1.1,0l0.5-1c5.1-11.1,8.6-22.9,10.5-35.1l0.1-0.6l0.6,0
					c6.1,0.1,6.6,0.2,6.7,0.2l0.8,0.1l-0.1,0.8c-2,12.3-5.7,24.2-11.1,35.5L262,206.3z M256.6,204.6c2.7,0.1,4,0.1,4.5,0.1
					c5.1-10.7,8.7-22.1,10.7-33.8c-0.8,0-2.3-0.1-5.2-0.1C264.7,182.5,261.4,193.9,256.6,204.6z"/>
			</g>
			<g>
				<path class="st12" d="M261.7,207l-0.5-0.8l-0.7-0.1l0.4-0.9c0.5-1,1-2.1,1.4-3.1c1.1-2.6,2.3-5.5,3.4-8.4
					c1.6-4.4,3-8.9,4.1-13.4c0.4-1.6,0.8-3.5,1.3-6c0.3-1.4,0.5-2.8,0.7-4.2l0.1-0.7l1,0.1l0.4,0.5l-0.4,2.1
					c-0.2,0.8-0.4,1.6-0.5,2.4c-0.4,2-0.8,4-1.3,6c-1.2,5.5-1.7,6.8-3.3,11.5c-0.3,0.7-0.5,1.4-0.8,2.1c-1,2.9-2.2,5.7-3.4,8.5
					c-0.5,1.1-0.9,2.2-1.4,3.1L261.7,207z"/>
			</g>
			<g>
				<path class="st12" d="M47.2,234.7L45,232c-8.1-10.6-8.1-10.6-11.5-16.4l-0.1-0.3c-2-3.6-4.6-8.6-6.4-12.3l-0.2-0.4l0.2-0.3
					c0.2-0.4,0.3-0.4,4.3-0.4h0.5l0.2,0.4c4.8,11,11.1,21.2,18.7,30.4l1,1.2h-1.6c-1.4,0-2.2,0-2.6,0L47.2,234.7z M28.8,203.4
					c1.7,3.6,4.1,8,5.9,11.3l0.1,0.2c3.3,5.6,3.3,5.6,11.3,16.2l1.2,1.5c0.3,0,0.7,0,1.2,0c-7.1-8.9-13.1-18.6-17.7-29.1
					C29.9,203.4,29.2,203.4,28.8,203.4z"/>
			</g>
			<g>
				<path class="st12" d="M62.1,234l-1.5,0c-4.7,0-8.3,0-10.6,0h-0.3l-0.2-0.3c-7.7-9.3-14-19.6-18.9-30.7l-0.5-1h1.1
					c2.8,0,7.1,0,12.7,0.1l0.5,0l0.2,0.5c4.2,11,9.8,21.2,16.5,30.4L62.1,234z M50.4,232.5c2.1,0,5,0,8.8,0
					c-6.3-8.9-11.6-18.6-15.7-29.1c-4.7,0-8.4,0-11.1-0.1C37.1,213.9,43.2,223.7,50.4,232.5z"/>
			</g>
			<g>
				<path class="st12" d="M79,234.2l-1.3,0c-6.6-0.1-12.3-0.1-17-0.1l-0.4,0l-0.2-0.3c-6.8-9.3-12.4-19.6-16.7-30.7l-0.4-1l1.1,0
					c5.6,0,12.5,0.1,20.5,0.2l0.5,0l0.2,0.5c3.4,11,7.8,21.2,13.1,30.4L79,234.2z M61,232.5c4.3,0,9.5,0.1,15.4,0.1
					c-5-8.8-9.2-18.6-12.4-29c-7.2-0.1-13.6-0.1-18.8-0.2C49.3,213.9,54.6,223.7,61,232.5z"/>
			</g>
			<g>
				<path class="st12" d="M101,234.4l-1.1,0c-8.2-0.1-15.7-0.2-22.3-0.2l-0.4,0l-0.2-0.4c-5.4-9.3-9.8-19.6-13.2-30.7l-0.3-1l1,0
					c8,0.1,17,0.2,26.8,0.3l0.6,0L92,203c2.2,11,5.1,21.2,8.6,30.4L101,234.4z M78.1,232.7c6.2,0.1,13.2,0.1,20.8,0.2
					c-3.3-8.8-6.1-18.6-8.2-29c-9.2-0.1-17.6-0.2-25.2-0.2C68.8,214.1,73,223.9,78.1,232.7z"/>
			</g>
			<g>
				<path class="st12" d="M127.1,234.7l-0.9,0c-9.3-0.1-18.2-0.2-26.4-0.3l-0.5,0l-0.2-0.5c-3.5-9.3-6.5-19.6-8.7-30.6l-0.2-0.9
					l0.9,0c9.8,0.1,20.5,0.2,31.7,0.3l0.7,0l0,0.7c0.8,11,1.9,21.2,3.3,30.4L127.1,234.7z M100.5,232.9c7.8,0.1,16.2,0.2,25,0.3
					c-1.3-8.8-2.3-18.5-3.1-28.9c-10.6-0.1-20.7-0.2-30.1-0.3C94.3,214.3,97.1,224.1,100.5,232.9z"/>
			</g>
			<g>
				<path class="st12" d="M155.7,235l-30.1-0.4l-0.1-0.6c-1.4-9.2-2.5-19.5-3.3-30.5l-0.1-0.8l36.2,0.4l0,0.8
					c-0.7,11-1.6,21.2-2.6,30.4L155.7,235z M126.9,233.2l27.5,0.3c0.9-8.8,1.8-18.5,2.4-28.9l-33.1-0.4
					C124.6,214.7,125.6,224.4,126.9,233.2z"/>
			</g>
			<g>
				<path class="st12" d="M182.5,235.4l-0.5,0c-8.5-0.1-17.5-0.2-26.9-0.3l-0.8,0l0.1-0.8c1-9.2,1.9-19.4,2.6-30.3l0-0.7l0.7,0
					c11.4,0.1,22.3,0.3,32.4,0.4l0.9,0l-0.2,0.9c-2.1,11-4.8,21.2-8.1,30.4L182.5,235.4z M155.9,233.5c9,0.1,17.6,0.2,25.6,0.3
					c3-8.7,5.6-18.4,7.7-28.8c-9.7-0.1-20.1-0.3-30.8-0.4C157.7,215.1,156.8,224.8,155.9,233.5z"/>
			</g>
			<g>
				<path class="st12" d="M205.8,235.7l-0.4,0c-7.1-0.1-14.9-0.2-23.4-0.3l-1,0l0.3-1c3.2-9.1,5.9-19.3,8-30.2l0.1-0.6l0.6,0
					c10.2,0.1,19.6,0.3,28.1,0.4l1,0l-0.3,0.9c-3.4,11-7.7,21.2-12.9,30.4L205.8,235.7z M183.1,233.9c7.9,0.1,15.3,0.2,21.9,0.3
					c4.9-8.7,9-18.4,12.2-28.7c-8.1-0.1-17-0.2-26.5-0.4C188.6,215.5,186.1,225.1,183.1,233.9z"/>
			</g>
			<g>
				<path class="st12" d="M224.3,236l-0.4,0c-5.2-0.1-11.5-0.2-18.5-0.3l-1.2,0l0.6-1.1c5.1-9.1,9.4-19.2,12.7-30.1l0.2-0.5l0.6,0
					c8.5,0.1,16,0.2,22.3,0.3l1.1,0l-0.4,1c-4.3,11-9.9,21.2-16.6,30.3L224.3,236z M206.6,234.2c6.4,0.1,12.1,0.2,16.9,0.3
					c6.3-8.7,11.6-18.3,15.8-28.7c-5.9-0.1-12.9-0.2-20.7-0.3C215.5,215.8,211.5,225.5,206.6,234.2z"/>
			</g>
			<g>
				<path class="st12" d="M236.7,236.2l-0.3,0c-3-0.1-7.2-0.1-12.4-0.2l-1.4,0l0.8-1.1c6.6-9,12.2-19.1,16.5-30l0.2-0.5l0.5,0
					c6.3,0.1,11.4,0.2,15,0.3l1.1,0l-0.5,1c-5,11-11.5,21.2-19.2,30.3L236.7,236.2z M225.3,234.5c4.4,0.1,8,0.1,10.7,0.2
					c7.3-8.7,13.4-18.3,18.3-28.7c-3.4-0.1-7.9-0.1-13.3-0.2C236.8,216.2,231.6,225.8,225.3,234.5z"/>
			</g>
			<g>
				<path class="st12" d="M241.7,236.4l-0.4,0c-0.2,0-1.2-0.1-5-0.1l-1.5,0l1-1.2c7.6-9,14-19.1,19-29.9l0.2-0.4l0.5,0
					c5.6,0.1,6,0.2,6.2,0.2l1,0.1l-0.5,0.9c-5.3,11-12.1,21.1-20.2,30.2L241.7,236.4z M237.9,234.7c1.9,0,2.8,0.1,3.2,0.1
					c7.7-8.7,14.2-18.3,19.3-28.6c-0.8,0-2.2-0.1-4.5-0.1C251.1,216.4,245.1,226,237.9,234.7z"/>
			</g>
			<g>
				<path class="st12" d="M241.2,237.1l-0.2-0.8l-0.9-0.1l0.9-1c0.9-1,1.8-2.1,2.7-3.2c0.8-1,1.7-2,2.4-3c0.2-0.2,0.4-0.5,0.5-0.7
					c2.7-3.5,5.2-7,7.5-10.8c0.9-1.5,2-3.3,3.4-5.7c1.2-2.1,2.3-4.3,3.4-6.5l0.2-0.5l0.9,0.1l0.5,0.7l-2.6,5.2
					c-0.4,0.6-0.7,1.2-1,1.8c-1.1,2-2.2,3.9-3.4,5.8c-2.6,4.4-3.5,5.5-6.3,9.3c-0.4,0.5-0.9,1.1-1.3,1.6c-1,1.3-2,2.5-3,3.7
					c-0.9,1.1-1.9,2.3-2.7,3.2L241.2,237.1z"/>
			</g>
			<g>
				<path class="st12" d="M74.4,258.4l-0.9-0.6c-4.9-3.5-10.7-8-14.8-11.4c-3.5-3.4-8.5-8.4-12.3-12.6l-0.3-0.4l0.2-0.4
					c0.2-0.5,0.2-0.5,3.7-0.5h0.3l0.2,0.3c7.5,9.2,16.3,17.2,26,23.8l1.9,1.3h-2.4c-0.8,0-1.3,0-1.6,0L74.4,258.4z M48.6,234
					c3.6,3.9,8,8.3,11.1,11.3c1.6,1.3,3.5,2.9,5.5,4.4c-5.6-4.8-10.8-10-15.5-15.7C49.3,234,48.9,234,48.6,234z"/>
			</g>
			<g>
				<path class="st12" d="M86,258l-2.2,0c-3.4,0-5.9,0-7.6,0H76l-0.2-0.1c-9.8-6.7-18.6-14.8-26.3-24.1l-1-1.2l1.6,0
					c2.3,0,5.9,0,10.6,0l0.4,0l0.2,0.3c6.7,9.1,14.4,17.1,23,23.8L86,258z M76.4,256.5c1.3,0,3.1,0,5.3,0
					c-7.9-6.4-15.1-13.9-21.4-22.5c-3.5,0-6.5,0-8.6,0C58.9,242.6,67.2,250.1,76.4,256.5z"/>
			</g>
			<g>
				<path class="st12" d="M97.9,258.1l-1.8,0c-4.8,0-8.9-0.1-12.2-0.1l-0.2,0l-0.2-0.2c-8.7-6.7-16.5-14.8-23.3-24.1l-0.9-1.2l1.5,0
					c4.7,0,10.4,0.1,17,0.1l0.4,0l0.2,0.4c5.3,9.1,11.4,17.1,18.2,23.7L97.9,258.1z M84.1,256.5c2.9,0,6.3,0,10.2,0.1
					c-6.3-6.4-12-13.9-17-22.4c-5.8-0.1-10.8-0.1-15.1-0.1C68.6,242.6,75.9,250.2,84.1,256.5z"/>
			</g>
			<g>
				<path class="st12" d="M113.5,258.2l-1.4,0c-5.9-0.1-11.3-0.1-16-0.2l-0.3,0l-0.2-0.2c-6.9-6.7-13.1-14.8-18.5-24.1l-0.6-1.1
					l1.3,0c6.6,0.1,14.1,0.1,22.3,0.2l0.5,0l0.2,0.5c3.5,9.1,7.5,17.1,12.1,23.7L113.5,258.2z M96.3,256.6c4.3,0,9.1,0.1,14.3,0.1
					c-4.2-6.3-8-13.9-11.3-22.4c-7.4-0.1-14.3-0.1-20.5-0.2C84.1,242.7,89.9,250.3,96.3,256.6z"/>
			</g>
			<g>
				<path class="st12" d="M132,258.4l-1,0c-6.7-0.1-13.1-0.1-19-0.2l-0.4,0l-0.2-0.3c-4.6-6.7-8.7-14.8-12.2-24l-0.4-1l1.1,0
					c8.2,0.1,17,0.2,26.4,0.3l0.6,0l0.1,0.6c1.4,9.1,2.9,17.1,4.7,23.7L132,258.4z M112.5,256.7c5.5,0.1,11.4,0.1,17.6,0.2
					c-1.7-6.3-3.1-13.8-4.4-22.3c-8.7-0.1-17-0.2-24.6-0.3C104.4,242.9,108.2,250.5,112.5,256.7z"/>
			</g>
			<g>
				<path class="st12" d="M152.4,258.7l-21.9-0.3l-0.1-0.5c-1.8-6.6-3.4-14.7-4.8-23.8l-0.1-0.9l30.5,0.4l-0.1,0.8
					c-1,9.1-2.1,17.1-3.3,23.7L152.4,258.7z M131.6,257l19.5,0.2c1.1-6.2,2.2-13.7,3.1-22.2l-27.1-0.3
					C128.4,243.2,129.9,250.7,131.6,257z"/>
			</g>
			<g>
				<path class="st12" d="M171.6,258.9l-0.4,0c-6.1-0.1-12.6-0.2-19.4-0.2l-0.9,0l0.2-0.9c1.2-6.6,2.3-14.5,3.3-23.6l0.1-0.7l0.7,0
					c9.4,0.1,18.5,0.2,26.9,0.3l1,0l-0.3,1c-3.2,9.1-6.9,17.1-10.9,23.7L171.6,258.9z M152.6,257.2c6.3,0.1,12.4,0.2,18.1,0.2
					c3.8-6.2,7.2-13.6,10.2-22.1c-8-0.1-16.4-0.2-25.3-0.3C154.8,243.5,153.8,250.9,152.6,257.2z"/>
			</g>
			<g>
				<path class="st12" d="M188.3,259.1l-0.3,0c-5.1-0.1-10.7-0.2-16.8-0.2l-1.3,0l0.7-1.1c4-6.5,7.6-14.4,10.8-23.4l0.2-0.5l0.5,0
					c8.5,0.1,16.3,0.2,23.4,0.3l1.2,0l-0.6,1.1c-5.1,9.1-11,17.1-17.5,23.6L188.3,259.1z M172.4,257.5c5.5,0.1,10.6,0.1,15.2,0.2
					c6.1-6.2,11.6-13.6,16.5-22c-6.6-0.1-13.8-0.2-21.6-0.3C179.5,243.8,176.2,251.2,172.4,257.5z"/>
			</g>
			<g>
				<path class="st12" d="M201.6,259.4l-0.3,0c-3.8-0.1-8.3-0.1-13.3-0.2l-1.7,0l1.2-1.2c6.4-6.5,12.2-14.3,17.3-23.3l0.2-0.4l0.4,0
					c7.1,0.1,13.3,0.2,18.5,0.3l1.4,0l-0.8,1.1c-6.7,9.1-14.3,17-22.7,23.5L201.6,259.4z M189.7,257.7c4.3,0.1,8.1,0.1,11.4,0.2
					c7.9-6.1,15.1-13.5,21.4-21.9c-4.8-0.1-10.4-0.2-16.7-0.3C201.1,244.1,195.6,251.5,189.7,257.7z"/>
			</g>
			<g>
				<path class="st12" d="M210.5,259.5l-0.2,0c-2.1,0-5.2-0.1-8.9-0.2l-2.1,0l1.7-1.3c8.3-6.4,15.9-14.3,22.5-23.2l0.2-0.3l0.4,0
					c5.2,0.1,9.4,0.2,12.4,0.2l1.5,0l-1,1.2c-7.7,9.1-16.5,17-26.2,23.5L210.5,259.5z M203.4,257.9c2.7,0,4.9,0.1,6.7,0.1
					c9.1-6.1,17.4-13.5,24.7-21.9c-2.7-0.1-6.3-0.1-10.5-0.2C218.1,244.3,211.1,251.7,203.4,257.9z"/>
			</g>
			<g>
				<path class="st12" d="M214.1,259.6l-0.3,0c-0.1,0-0.9,0-3.6-0.1l-2.3,0l1.9-1.3c9.6-6.4,18.3-14.2,25.9-23.2l0.2-0.3l0.3,0
					c4.1,0.1,4.9,0.1,5.1,0.2l1.4,0.1l-1,1.1c-8.1,9.1-17.4,16.9-27.7,23.4L214.1,259.6z M212.6,258.1c0.6,0,1,0,1.2,0
					c9.6-6.1,18.4-13.5,26.1-21.9c-0.7,0-1.7,0-3.1-0.1C229.6,244.6,221.5,251.9,212.6,258.1z"/>
			</g>
			<g>
				<path class="st12" d="M213.5,260.1l-0.1-0.5l-1.6-0.2l1.7-1.1c0.3-0.2,0.7-0.4,1-0.7l4.1-2.8c3.1-2.2,6.1-4.5,9-6.9
					c1.5-1.3,3.4-3.1,6.2-5.6c0.7-0.7,1.4-1.4,2.1-2.1l3.7-3.8c0.4-0.4,0.8-0.9,1.2-1.3l0.3-0.3l0.9,0.1l0.3,0.9l-1.5,1.6
					c-1.2,1.3-2.5,2.6-3.8,3.9l-1.1,1.2c-0.3,0.3-0.6,0.6-1,0.9c-2,2-4.2,3.9-6.3,5.7c-3.2,2.9-4.5,3.7-8,6.3l-1.1,0.7
					c-1.4,1-2.7,1.9-4.1,2.8L213.5,260.1z"/>
			</g>
			<g>
				<path class="st12" d="M107.5,273.9l-0.9-0.3c-4.1-1.5-10.1-3.6-14.4-5.5c-12-6-12-6-17.7-9.6l-1.5-1l0.2-0.5
					c0.2-0.6,0.2-0.6,2.9-0.6h0.2l0.2,0.1c9.8,6.7,20.5,12,31.7,15.6l4.4,1.4h-4.7c-0.2,0-0.4,0-0.5,0L107.5,273.9z"/>
			</g>
			<g>
				<path class="st12" d="M116.3,273.7l-4.3,0c-1.8,0-3.1,0-4,0l-0.2,0c-11.3-3.7-22.1-9-32.1-15.8l-1.9-1.3h2.4c1.7,0,4.3,0,7.6,0
					l0.2,0l0.2,0.2c8.7,6.7,18.1,12,28.1,15.6L116.3,273.7z M78.6,257.9c9.1,6,18.9,10.7,29.1,14.1c-8.5-3.5-16.6-8.2-24.2-14.1
					C81.6,257.9,80,257.9,78.6,257.9z"/>
			</g>
			<g>
				<path class="st12" d="M122,273.7l-3.5,0c-2.5,0-4.7,0-6.5-0.1l-0.2,0c-10.1-3.7-19.7-9-28.5-15.8l-1.7-1.3l2.2,0
					c3.4,0,7.5,0.1,12.2,0.1l0.3,0l0.2,0.2c6.9,6.7,14.4,11.9,22.3,15.5L122,273.7z M112.2,272.2c0.9,0,1.9,0,3,0
					c-6.9-3.5-13.4-8.3-19.5-14.2c-3.6,0-6.9-0.1-9.7-0.1C94.2,264,103,268.8,112.2,272.2z"/>
			</g>
			<g>
				<path class="st12" d="M129.4,273.8l-11.2-0.2c-8-3.6-15.7-9-22.7-15.8l-1.3-1.3l1.8,0c4.8,0,10.1,0.1,16,0.2l0.4,0l0.2,0.3
					c4.6,6.7,9.5,11.8,14.7,15.4L129.4,273.8z M118.7,272.2l6,0.1c-4.6-3.5-8.9-8.2-13-14.1c-5-0.1-9.6-0.1-13.8-0.1
					C104.4,264.1,111.4,268.9,118.7,272.2z"/>
			</g>
			<g>
				<path class="st12" d="M138.3,273.9l-11.5-0.1l-0.2-0.1c-5.4-3.6-10.4-8.9-15.1-15.8l-0.8-1.2l1.4,0c5.9,0.1,12.2,0.1,19,0.2
					l0.6,0l0.1,0.5c1.8,6.6,3.8,11.8,5.9,15.3L138.3,273.9z M127.2,272.3l8.5,0.1c-1.9-3.4-3.6-8.1-5.2-14c-6-0.1-11.7-0.1-17-0.2
					C117.8,264.3,122.4,269,127.2,272.3z"/>
			</g>
			<g>
				<path class="st12" d="M148.4,274l-11.8-0.1l-0.2-0.4c-2.2-3.6-4.2-8.9-6-15.7l-0.3-0.9l22.6,0.3l-0.2,0.9
					c-1.2,6.7-2.5,11.9-3.9,15.5L148.4,274z M137.4,272.4l10,0.1c1.2-3.3,2.4-8,3.5-13.9l-18.9-0.2
					C133.7,264.4,135.5,269.1,137.4,272.4z"/>
			</g>
			<g>
				<path class="st12" d="M158.4,274.2l-11.5-0.1l0.4-1c1.3-3.5,2.6-8.6,3.8-15.2l0.1-0.6l0.6,0c6.8,0.1,13.3,0.2,19.4,0.2l1.3,0
					l-0.7,1.1c-4.1,6.7-8.6,11.9-13.2,15.4L158.4,274.2z M148.9,272.6l8.9,0.1c4.2-3.2,8.2-7.8,12-13.8c-5.5-0.1-11.4-0.1-17.5-0.2
					C151.3,264.5,150.1,269.2,148.9,272.6z"/>
			</g>
			<g>
				<path class="st12" d="M167.1,274.3l-11.2-0.2l1.7-1.3c4.5-3.4,8.8-8.5,12.9-15l0.2-0.4l0.4,0c6.1,0.1,11.8,0.2,16.8,0.2l1.7,0
					l-1.2,1.2c-6.6,6.7-13.7,11.8-21.2,15.3L167.1,274.3z M160.2,272.7l6.7,0.1c6.8-3.2,13.3-7.8,19.4-13.7
					c-4.5-0.1-9.4-0.1-14.7-0.2C168,264.7,164.2,269.3,160.2,272.7z"/>
			</g>
			<g>
				<path class="st12" d="M174.1,274.4l-0.1,0c-2,0-4.4-0.1-7-0.1l-3.2,0l2.9-1.4c7.3-3.4,14.3-8.4,20.8-15l0.2-0.2l0.3,0
					c5.1,0.1,9.6,0.1,13.3,0.2l2.1,0l-1.7,1.3c-8.6,6.6-17.8,11.7-27.5,15.1L174.1,274.4z M170,272.9c1.4,0,2.7,0,3.9,0.1
					c8.9-3.1,17.4-7.7,25.3-13.6c-3.2-0.1-6.9-0.1-10.9-0.2C182.6,264.9,176.4,269.5,170,272.9z"/>
			</g>
			<g>
				<path class="st12" d="M178.8,274.5l-0.1,0c-1.1,0-2.7-0.1-4.7-0.1l-4.1-0.1l3.9-1.4c9.5-3.4,18.7-8.4,27.1-14.9l0.2-0.2l0.3,0
					c3.8,0.1,6.8,0.1,9,0.2l2.3,0l-1.9,1.3c-9.9,6.6-20.6,11.7-31.7,15L178.8,274.5z M177.9,273c0.3,0,0.5,0,0.8,0
					c10.3-3.1,20.1-7.7,29.3-13.5c-1.8,0-3.9-0.1-6.3-0.1C194.1,265.1,186.2,269.7,177.9,273z"/>
			</g>
			<g>
				<path class="st12" d="M180.7,274.5l-0.1,0c-0.1,0-0.8,0-1.9-0.1l-4.6-0.1l4.4-1.3c11-3.3,21.6-8.3,31.4-14.9l0.2-0.1l0.2,0
					c3,0.1,3.5,0.1,3.7,0.1l2.1,0.2l-1.8,1.1c-10.4,6.6-21.7,11.6-33.5,15L180.7,274.5z M210.5,259.5c-3.1,2.1-6.4,4-9.7,5.8
					c3.6-1.8,7.2-3.7,10.6-5.8C211.2,259.5,210.8,259.5,210.5,259.5z"/>
			</g>
			<g>
				<path class="st12" d="M180.6,274.5l-3.8-0.4l3.7-1.1c0.3-0.1,0.6-0.2,0.8-0.2l2.1-0.6c3.3-1,6.5-2.2,9.7-3.5
					c2.1-0.9,4.8-2.1,9.3-4.2c0.7-0.3,1.4-0.7,2-1c2.3-1.2,4.9-2.8,7.3-4.1l1.3-0.7c0.2-0.1,0.4-0.3,0.7-0.4l0.2-0.1l0.8,0.1l0.3,1
					l-1.2,0.7c-2.8,1.8-5.7,3.4-8.6,4.9c-0.5,0.3-1,0.5-1.5,0.8c-0.2,0.1-0.4,0.2-0.5,0.2c-3.1,1.5-6.2,2.9-9.3,4.2
					c-3.4,1.5-4.9,2-8.8,3.2l-0.9,0.3c-0.7,0.2-1.4,0.4-2.1,0.6l-0.3,0.1c0,0.1-0.6,0.2-0.6,0.2l-0.2-0.6L180.6,274.5z"/>
			</g>
			<g>
				<path class="st12" d="M143.7,279.5c-4,0-8-0.3-11.9-0.7c-0.6-0.1-1.2-0.2-1.8-0.3c-1.6-0.2-3.2-0.4-4.8-0.7
					c-7.4-1.1-8.4-1.4-13.9-2.8l-5.3-1.5l0.1-0.6c0.1-0.6,0.4-0.6,1.9-0.6l0.2,0c5.6,1.8,11.4,3.2,17.3,4.2c1.3,0.2,2.9,0.4,4.7,0.7
					c4.5,0.6,9,0.9,13.5,0.9C143.7,278,143.7,279.5,143.7,279.5z"/>
			</g>
			<g>
				<path class="st12" d="M143.7,279.5c-12.2-0.2-24.3-2.1-35.9-5.9l-4.4-1.4h4.7c0.9,0,2.2,0,4,0l0.2,0c11.6,3.6,16.5,5.1,31.5,5.8
					L143.7,279.5z"/>
			</g>
			<g>
				<path class="st12" d="M143.7,279.5c-2,0-4.1-0.2-6.1-0.4c-8.4-0.6-14-1.5-25.8-5.4l-4.4-1.5l4.6,0c1.8,0,3.9,0,6.5,0.1l0.3,0.1
					c6.1,2.8,12.5,4.6,18.9,5.3c1.8,0.1,3.8,0.3,6,0.4L143.7,279.5z M116.9,273.7c1.6,0.5,3.1,0.9,4.5,1.3c-1-0.4-2-0.8-3-1.3
					C117.9,273.7,117.4,273.7,116.9,273.7z"/>
			</g>
			<g>
				<path class="st12" d="M143.7,279.5c-8.7-0.1-17.3-2.1-25.5-5.8l-3.2-1.4l12.1,0.1l0.2,0.1c5.3,3.6,10.8,5.4,16.3,5.5
					L143.7,279.5z M122.3,273.7c3.1,1.2,6.3,2.2,9.4,2.9c-1.7-0.8-3.3-1.7-5-2.8L122.3,273.7z"/>
			</g>
			<g>
				<path class="st12" d="M143.7,279.5c-5.9-0.1-11.6-2.1-17.1-5.8l-2-1.4l12.8,0.1l0.2,0.4c2,3.4,4.1,5.1,6.1,5.2L143.7,279.5z
					 M129.6,273.8c3.3,1.9,6.6,3.2,9.9,3.8c-1-0.9-2-2.1-3-3.7L129.6,273.8z"/>
			</g>
			<g>
				<path class="st12" d="M143.7,279.5c-2.6-0.1-5.1-2.1-7.4-5.9l-0.7-1.1l13.3,0.2l-0.4,1C147.1,277.5,145.5,279.4,143.7,279.5
					L143.7,279.5z M138.3,273.9c1.8,2.6,3.6,4,5.4,4.1c0.5,0,1.6-0.5,3.1-4L138.3,273.9z"/>
			</g>
			<g>
				<path class="st12" d="M143.8,279.5C143.8,279.5,143.7,279.5,143.8,279.5l-0.1-1.5c0.5,0,1.8-0.5,3.5-5l0.2-0.5l12.9,0.2
					l-1.7,1.3C153.8,277.6,148.8,279.5,143.8,279.5z M148.4,274c-0.7,1.6-1.3,2.9-2,3.8c3.2-0.4,6.4-1.7,9.5-3.7L148.4,274z"/>
			</g>
			<g>
				<path class="st12" d="M144.1,279.5c-0.1,0-0.3,0-0.4,0c0,0,0-1.5,0-1.5c0,0,0.1,0,0.1,0c4.7,0,9.3-1.7,13.9-5.2l0.2-0.2
					l12.3,0.2l-2.9,1.4C159.8,277.7,152,279.5,144.1,279.5z M158.4,274.2c-1.6,1.2-3.2,2.2-4.8,3c3.4-0.6,6.7-1.6,10-2.9
					L158.4,274.2z"/>
			</g>
			<g>
				<path class="st12" d="M144.1,279.5c-0.1,0-0.3,0-0.4,0l0-1.5c1.4,0,2.6-0.1,3.8-0.1c6.5-0.4,12.9-2.1,19.1-5l0.2-0.1l0.2,0
					c2.7,0,5,0.1,7,0.1l4.7,0.1l-4.5,1.4c-10.2,3.1-15,4.5-26.6,5C146.5,279.4,145.3,279.5,144.1,279.5z M167.1,274.3
					c-1.3,0.6-2.6,1.2-4,1.7c1.9-0.5,3.9-1,6-1.6C168.6,274.3,167.9,274.3,167.1,274.3z"/>
			</g>
			<g>
				<path class="st12" d="M145,279.5c-0.4,0-0.9,0-1.3,0l0-1.5c11.6-0.5,16.5-0.7,30.1-5l0.1,0l0.1,0c2,0,3.6,0.1,4.7,0.1l4.6,0.1
					l-4.4,1.3C167.9,277.8,156.5,279.5,145,279.5z"/>
			</g>
			<g>
				<path class="st12" d="M145.3,279.5c-0.5,0-1,0-1.6,0c0,0,0-1.5,0-1.5c11.8,0.1,23.5-1.5,34.8-5l0.1,0l0.1,0c1.2,0,1.9,0,2,0.1
					l3.8,0.4l-3.6,1C169.3,277.8,157.4,279.5,145.3,279.5z"/>
			</g>
			<g>
				<path class="st12" d="M147,279.5c-0.9,0-2,0-3.3,0c0,0,0-1.5,0-1.5c0,0,0.1,0,0.1,0c3,0,6,0,9-0.2c2.5-0.2,5.8-0.6,11.6-1.2
					c0.1,0,0.2,0,0.4-0.1c5.1-0.9,11.7-2.5,15.4-3.4c0.1,0,0.1,0,0.2-0.1l0.1,0l0.8,0.1l0.1,1.3l-0.6,0.1c-0.1,0-0.1,0-0.2,0
					c-5.1,1.5-10.3,2.6-15.6,3.4c-0.1,0-0.2,0-0.2,0c0,0-0.1,0-0.1,0c-3.9,0.6-7.8,1-11.7,1.2C150.7,279.4,149.1,279.5,147,279.5z"
					/>
			</g>
		</g>
	</g>
	<g class="st11">
		<path class="st13" d="M134.4,165.8H122C125.9,167,130.2,167.1,134.4,165.8z"/>
		<path class="st13" d="M182.7,181.4V155c0-3.9-1-7.4-2.7-10.5c0.3,6.9,0.4,14,0.4,21.3h-16v10.3h15.9c-0.1,7-0.4,13.9-0.8,20.5
			C181.6,191.9,182.7,186.7,182.7,181.4z"/>
		<path class="st13" d="M304.3,165.8c0-91.1-74.1-165.1-165.1-165.1S-26,74.7-26,165.8c0,1.4,0.2,2.7,0.2,4.1
			c-0.1,0.3-0.2,0.7-0.2,1c0,0.6,0.2,1.2,0.4,1.7c3.7,87.8,76.1,158.2,164.8,158.2s161.1-70.4,164.8-158.2c0.2-0.5,0.4-1.1,0.4-1.7
			c0-0.4-0.1-0.7-0.2-1C304.1,168.5,304.3,167.2,304.3,165.8z M-15.2,176.1H26c1,22.7,5.1,44.1,11.7,63.4
			c-9.1,4.4-17.5,9.4-25.3,14.9C-3.4,231.9-13.2,205.1-15.2,176.1z M18.5,262.6c7.1-4.9,14.6-9.5,22.8-13.5
			c10.4,25.6,25.3,46.9,43.2,61.3C58.4,300.6,35.7,284,18.5,262.6z M193.8,310.5c17.9-14.4,32.8-35.7,43.2-61.3
			c8.2,4,15.7,8.5,22.8,13.5C242.6,284,219.8,300.6,193.8,310.5z M293.4,176.1c-1.9,29-11.7,55.8-27.5,78.2
			c-7.8-5.5-16.3-10.5-25.4-14.9c2-5.9,3.8-12,5.4-18.3l-12.5,7.2c-0.7,2.4-1.4,4.7-2.2,7c-1.9-0.8-3.9-1.6-5.9-2.3l-11.7,6.7
			c4.8,1.6,9.5,3.4,14,5.3c-14.5,36.3-38.5,63-66.9,72.1c9.3-13,16.6-34.1,21.6-59.3l-12,6.9c-8.1,35-20,55.9-31.2,55.9
			c-12.1,0-25-24.3-33.1-64.4l-1.5-0.9c-2.6-1.5-2.6-5.3,0-6.8l0.1,0c-1-5.7-1.9-11.6-2.7-17.8c12.2-1.9,24.6-3,37.3-3
			c0.5,0,0.9,0,1.4,0l16.7-9.7c-6-0.4-12-0.7-18.1-0.7c-6.2,0-12.4,0.2-18.5,0.7l-28.5,16.4c4.8,35.2,13.4,65.8,25.4,82.6
			c-28.4-9.1-52.4-35.8-66.9-72.1c7.2-3,14.7-5.7,22.5-7.9l-12.1-7c-4.8,1.6-9.4,3.4-14,5.3c-1.8-5.2-3.3-10.7-4.7-16.2
			c-5.6-4.1-8.9-10.6-8.9-17.6l-0.1-95.1c-4.9,18.4-7.7,38.4-7.7,59.4h-41.3c0-32.9,10.4-63.4,28-88.5c6.9,4.8,14.2,9.3,22.1,13.2
			c1.1-3.3,2.9-6.3,5.4-8.8c-7.6-3.8-14.6-8.1-21.2-12.7c17.2-21.4,39.9-38,66-47.9C67.3,34.9,52.9,55.1,42.6,79.3
			c0.5-0.4,1.1-0.8,1.7-1.1l13.8-8c14.6-27.9,35.5-48.1,59.4-55.8c-5.3,7.4-10,17.5-13.9,29.5l13.9-8c6.7-16,14.3-25,21.6-25
			c5.6,0,11.4,5.3,16.8,15c0.2,0.1,0.3,0.2,0.5,0.3l15,8.7c-3.2-8.1-6.7-15-10.7-20.4c20.9,6.7,39.5,23,53.6,45.6
			c0.7,0.2,1.5,0.5,2.2,0.9l14.7,8.5c-9.8-19.9-22.6-36.6-37.4-48.5c26.1,9.9,48.8,26.5,66,47.9c-4.5,3.2-9.2,6.1-14.2,8.9l1,0.6
			c2.9,1.7,5.3,4,7.1,6.6c4.2-2.5,8.3-5.1,12.2-7.9c17.6,25.1,28,55.6,28,88.5h-36.3l0,10.3H293.4z"/>
		<path class="st13" d="M125.9,113.8c1.2-3.8,3.3-7.3,6.2-10.1c-7.4-0.2-14.7-0.8-21.9-1.7c-1.5,3.1-2.6,6.5-3.2,10
			C113.3,112.9,119.6,113.5,125.9,113.8z"/>
		<path class="st13" d="M182.3,73.9c-1.3-6.5-2.7-12.7-4.3-18.6l-9.2,5.3c1.5,5.8,2.9,12.1,4.2,18.7L182.3,73.9z"/>
	</g>
</g>
<g id="WhiteOnTransparent">
	<text transform="matrix(1 0 0 1 212.4982 544.4999)" class="st0"><tspan x="0" y="0" class="st2 st3 st4" style="display:inline;fill:#FFFFFF;">Carleto</tspan><tspan x="223" y="0" class="st2 st3 st5" style="display:inline;fill:#FFFFFF;">n</tspan><tspan x="265" y="0" class="st6 st7 st3 st8">.e</tspan><tspan x="313.3" y="0" class="st6 st7 st3 st8">du</tspan></text>
	<text transform="matrix(1 0 0 1 212.4982 624.65)" class="st0"><tspan x="0" y="0" class="st2 st9 st10" style="display:inline;fill:#FFFFFF;">D</tspan><tspan x="51.7" y="0" class="st2 st9 st4" style="display:inline;fill:#FFFFFF;">at</tspan><tspan x="127.2" y="0" class="st2 st9 st4" style="display:inline;fill:#FFFFFF;">aS</tspan><tspan x="211.5" y="0" class="st2 st9 st10" style="display:inline;fill:#FFFFFF;">qu</tspan><tspan x="300.2" y="0" class="st2 st9 st8" style="display:inline;fill:#FFFFFF;">ad</tspan></text>
	<g>
		<path class="st14" d="M65.9,621.4l-83.6,48.2c-4.6,2.7-10.3,2.6-14.8,0l-38.1-22c-8.6-5-13.9-14.1-13.9-24.1l-0.2-131.9
			c0-10,5.3-19.2,13.9-24.2l114-65.8c8.6-5,19.3-5,27.9,0l38,22.1c3.3,1.9,3.3,6.7,0,8.6l-77.1,44.5C17.2,485.4,8,501.4,8,518.6V552
			c0,21.1,22.9,34.3,41.2,23.8L67.9,565c5.9-3.4,13.4,0.9,13.4,7.7v22.2C81.2,605.8,75.4,615.9,65.9,621.4z"/>
		<path class="st14" d="M185.4,647.9L71.3,713.6c-8.6,5-19.2,5-27.8,0l-38-22c-3.3-1.9-3.3-6.7,0-8.6l74.8-43.2
			c14.9-8.6,24.1-24.6,24.1-41.8v-33.4c0-21.1-22.9-34.3-41.2-23.8l-18.7,10.8c-5.9,3.4-13.4-0.9-13.4-7.7v-22.2
			c0-11,5.8-21.1,15.3-26.6l85.8-49.5c4.6-2.7,10.3-2.6,14.9,0l38.2,22.1c8.6,5,13.9,14.1,13.9,24.1l0.1,131.8
			C199.3,633.7,194,642.9,185.4,647.9z"/>
	</g>
</g>
<g id="Layer_3" class="st0">
</g>
<g id="Layer_1">
	<g transform="translate(0 -527.95)" class="st0">
		<path class="st15" d="M210.2,832.5c44-16.2,75.8-58.1,76.9-107.8c0.3-12.5-1.4-24.6-4.8-35.9l-0.4,0.1c3.3,11.2,4.9,23.1,4.6,35.4
			c-0.1,2.7-0.2,5.3-0.5,8c-9.1-1.3-18.3-2.1-27.7-2.3c-1-10.4-3.2-20.6-6.2-30.4l-0.3,0.1c3,9.7,5.1,19.9,6.1,30.3
			c-7.7-0.2-15.5,0-23.3,0.6c-5.2,0.4-10.4,0.9-15.5,1.6c-1.6-6.3-3.5-12.6-5.5-18.7l-0.2,0.1c2,6.1,3.9,12.4,5.5,18.7
			c-16.1,2.2-31.7,6-46.5,11.2l-8.3-22.2l7.9,22.3c-14.5,5.1-28.3,11.6-41.3,19.2c-2.6-5.5-5-11.1-7.2-16.9l-0.2,0.1
			c2.2,5.8,4.7,11.5,7.2,17c-10.5,6.2-20.4,13.1-29.8,20.7c-5-7.7-9.4-16.1-13-24.9l-0.3,0.1c3.6,8.8,8,17.2,13,25
			c-6.3,5.2-12.4,10.7-18.1,16.4c-8.6-9.4-15.7-20.3-20.7-32.2l-0.4,0.1c17.6,41.2,58,70.4,105.6,71.5c12,0.3,23.6-1.3,34.6-4.4
			c0.9-0.2,1.9-0.5,2.8-0.8c0.7-0.2,1.4-0.4,2.1-0.7c0.1,0,0.1,0,0.2-0.1c0.5-0.2,1-0.3,1.5-0.5c0.1,0,0.2-0.1,0.3-0.1
			C208.9,832.9,209.6,832.7,210.2,832.5L210.2,832.5z M206.3,831.8c-0.3,0.1-0.6,0.2-0.8,0.3l-5-13.4c7-2.4,14-4.2,21-5.6
			C218.2,822.5,213,829,206.3,831.8L206.3,831.8z M203.6,832.7c-0.2,0.1-0.3,0.1-0.5,0.2c-4.9,1.1-10.4,0.5-16.5-2.1
			c-2.2-0.9-4.3-2.1-6.5-3.4c5.8-2.9,11.8-5.5,18-7.7c0.3-0.1,0.6-0.2,0.8-0.3L203.6,832.7L203.6,832.7z M214.3,828.4
			c3.6-3.8,6.4-9,8.4-15.6c4.5-0.8,9-1.5,13.4-1.9C229.9,818.3,222.5,824.2,214.3,828.4L214.3,828.4z M194.7,834.8
			c-6.4,1-13.2,1.1-20.2,0.3c-2.2-0.3-4.3-0.6-6.4-1.1c3.5-2.2,7.1-4.2,10.8-6.1c2.7,1.8,5.5,3.4,8.2,4.6
			C189.8,833.6,192.3,834.3,194.7,834.8L194.7,834.8z M225.8,823.2c4.6-3.6,8.8-7.8,12.5-12.5c2.1-0.2,4.2-0.3,6.4-0.4
			C238.9,815.2,232.5,819.5,225.8,823.2L225.8,823.2z M181.2,837.3c-4.9,0.5-9.8,0.8-14.8,0.7c-1.4,0-2.8-0.1-4.3-0.2
			c1.4-0.9,2.7-1.8,4.1-2.7c2.9,0.7,5.8,1.3,8.7,1.7C177.2,837,179.2,837.2,181.2,837.3L181.2,837.3z M246.5,808.7
			c-2.3,0.1-4.7,0.2-7,0.4c4.3-5.7,7.9-12.1,10.9-19.2c4.3,0.1,8.6,0.3,12.9,0.7C258.4,797.2,252.8,803.3,246.5,808.7L246.5,808.7z
			 M159.8,837.6c-9.8-0.7-19.2-2.6-28.1-5.5c3.1-2.6,6.3-5.2,9.6-7.6c7.4,4.4,15.1,7.9,23.1,10C162.8,835.6,161.3,836.6,159.8,837.6
			L159.8,837.6z M237.5,809.3C237.5,809.3,237.5,809.3,237.5,809.3c-4.8,0.4-9.6,1.1-14.3,2c1.6-5.8,2.7-12.6,3.1-20.1
			c7.7-0.9,15.4-1.3,23-1.2C246,797.1,242.1,803.6,237.5,809.3L237.5,809.3z M166.1,833.5c-8.2-2-16.3-5.2-23.9-9.6
			c6.1-4.4,12.4-8.4,19.1-12.1c5.4,6.1,10.8,11.2,16.3,15.1C173.6,828.9,169.8,831.1,166.1,833.5z M222.1,811.4
			c-7.4,1.4-14.8,3.4-22.1,5.9l-7.1-19c5.4-1.7,11-3.2,16.7-4.4c5.4-1.2,10.8-2,16.1-2.7C225.1,798.9,223.9,805.7,222.1,811.4
			L222.1,811.4z M178.6,826.4c-5.6-3.7-11.3-8.8-16.8-14.9c9.4-5.1,19.3-9.4,29.8-12.8l6.8,19.2c-0.3,0.1-0.5,0.2-0.8,0.3
			C191,820.5,184.6,823.3,178.6,826.4L178.6,826.4z M263.9,789.9c-4.4-0.4-8.8-0.6-13.2-0.7c3.4-8.4,5.9-17.6,7.2-27.5
			c6.9,0.3,13.8,0.9,20.6,1.8C274.8,773,269.9,781.8,263.9,789.9z M131,831.9c-8.6-2.9-16.7-6.7-24.2-11.4
			c4.3-4.3,8.9-8.4,13.6-12.3c6.4,6.2,13.2,11.6,20.4,16C137.4,826.7,134.1,829.2,131,831.9L131,831.9z M249.5,789.2
			c-7.7-0.1-15.4,0.4-23.2,1.3c0.4-8.2,0-17.4-1.2-27.3c10.8-1.4,21.5-1.8,32.2-1.5C255.8,771.6,253.2,780.9,249.5,789.2
			L249.5,789.2z M141.7,823.6c-7.3-4.3-14.3-9.6-20.8-15.7c7.7-6.3,16-12.2,24.7-17.3c4.9,7.8,10.1,14.8,15.4,20.9
			C154.2,815.1,147.8,819.1,141.7,823.6L141.7,823.6z M225.7,790.6c-5.2,0.6-10.4,1.5-15.7,2.6c-5.9,1.3-11.7,2.8-17.3,4.6l-9.3-25
			c4.6-1.6,9.3-3,14.1-4.3c9.1-2.4,18.2-4.2,27.3-5.3C225.9,773.2,226.2,782.4,225.7,790.6L225.7,790.6z M161.5,811.1
			c-5.4-6-10.6-13-15.6-20.8c11.5-6.8,23.7-12.6,36.7-17.1l8.9,25.1C180.9,801.7,170.9,806,161.5,811.1L161.5,811.1z M279,762.5
			c-6.9-0.9-13.9-1.5-20.9-1.7c1-8.2,1.3-16.9,0.7-26c-0.1-1.4-0.2-2.8-0.3-4.1c9.3,0.3,18.5,1.1,27.6,2.5
			C284.9,743.4,282.5,753.3,279,762.5L279,762.5z M106.1,820.1c-8.5-5.3-16.2-11.7-22.9-19c5.7-5.8,11.6-11.3,17.9-16.5
			c5.6,8.5,11.9,16.3,18.8,23.1C115.1,811.7,110.5,815.8,106.1,820.1z M257.4,760.8c-10.7-0.3-21.5,0.3-32.4,1.7
			c-0.6-4.7-1.4-9.6-2.3-14.7c-1-5-2.1-10.1-3.4-15.1c4.8-0.6,9.7-1.1,14.6-1.5c8.1-0.6,16.2-0.7,24.1-0.5c0.1,1.2,0.2,2.5,0.3,3.8
			C258.9,743.7,258.6,752.5,257.4,760.8L257.4,760.8z M120.4,807.4c-7-6.7-13.4-14.5-19-22.9c9.3-7.7,19.1-14.7,29.6-20.9
			c4.4,9.5,9.3,18.4,14.4,26.5C136.5,795.2,128.2,801,120.4,807.4L120.4,807.4z M224.7,762.6c-8.9,1.2-17.8,2.9-26.6,5.3
			c-5,1.3-10,2.9-14.8,4.6L172.7,744c14.8-5.2,30.4-9,46.5-11.2c1.2,4.9,2.3,9.7,3.2,14.6C223.4,752.6,224.1,757.7,224.7,762.6
			L224.7,762.6z M145.6,789.9c-5.2-8.1-10-17-14.5-26.4c13-7.7,26.7-14.2,41.2-19.4l10.1,28.6C169.4,777.3,157.1,783.1,145.6,789.9
			L145.6,789.9z"/>
	</g>
	<path class="st0" d="M384.3,239.7c3.2-5.6,5-12,5-18.8s-1.8-13.3-5-18.8c-0.1-0.2-0.2-0.3-0.3-0.4c-6.6-11.3-18.9-18.9-33-18.9
		c-14,0-26.3,7.6-33,18.9c-0.1,0.1-0.2,0.3-0.3,0.4c-3.2,5.5-5,11.9-5,18.8l0,0l0,0l0,0c0,21.1,17.1,38.2,38.2,38.2
		c14,0,26.3-7.6,33-18.9C384.1,240,384.2,239.9,384.3,239.7z M316.6,222.7h12.9c0.2,5,1.2,9.9,2.8,14.5h-11.7
		C318.3,232.8,316.9,227.9,316.6,222.7z M320.6,204.6h11.7c-1.7,4.6-2.6,9.4-2.8,14.4h-12.9C316.9,213.8,318.3,208.9,320.6,204.6z
		 M385.5,219h-12.7c-0.2-5-1.2-9.8-2.8-14.4h11.5C383.8,208.9,385.2,213.8,385.5,219z M369.1,219h-16.2v-14.4H366
		C367.8,209.1,368.9,213.9,369.1,219z M352.9,200.9v-14c4.8,3.9,8.7,8.6,11.4,13.9L352.9,200.9L352.9,200.9z M349.2,187.1v13.7H338
		C340.7,195.6,344.5,191,349.2,187.1z M349.2,204.6V219h-16c0.2-5,1.3-9.9,3.1-14.4H349.2z M333.2,222.7h16v14.5h-12.9
		C334.5,232.6,333.4,227.7,333.2,222.7z M349.2,240.9v13.7c-4.7-3.8-8.5-8.5-11.2-13.7H349.2z M352.9,254.8v-13.9h11.4
		C361.5,246.2,357.7,250.9,352.9,254.8z M352.9,237.2v-14.5h16.2c-0.2,5.1-1.3,10-3.1,14.5H352.9z M372.8,222.7h12.7
		c-0.3,5.2-1.7,10.2-4.1,14.5H370C371.6,232.6,372.6,227.7,372.8,222.7z M379.2,200.9h-10.8c-2.3-5-5.6-9.7-9.6-13.6
		C367.1,189.2,374.3,194.1,379.2,200.9z M343.6,187.2c-4.1,4-7.3,8.6-9.7,13.7h-11C327.8,194,335.1,189,343.6,187.2z M322.9,240.9
		h10.9c2.4,5.1,5.6,9.7,9.7,13.7C335.1,252.7,327.8,247.7,322.9,240.9z M358.8,254.5c4-4,7.3-8.6,9.6-13.6h10.7
		C374.3,247.6,367.1,252.6,358.8,254.5z"/>
	<g>
		<path class="st16" d="M66.2,128.5c-24.8,53.7-3.1,118.2,50,145.5s118.2,7.4,147.4-44.1c0.3-0.3,0.6-0.6,0.7-0.9
			c0.1-0.2,0.1-0.5,0.2-0.7c0.4-0.8,1-1.6,1.4-2.4c28-54.5,6.4-121.7-48.1-149.7S96.1,69.7,68.1,124.3c-0.4,0.8-0.7,1.7-1.1,2.5
			c-0.1,0.2-0.3,0.3-0.4,0.6C66.3,127.7,66.3,128.1,66.2,128.5z M200.8,245.1c-6.4-7.6-13.8-14.7-22-21.2c5.6-8.5,11-17.5,15.9-26.7
			l30.8,15.8C218.4,225.3,210,236.2,200.8,245.1z M231.7,216.1l24.6,12.7c-10.1,16.8-24.2,29.8-40.5,38.4c-3-5.7-6.5-11.3-10.6-16.7
			C215.1,240.9,224.1,229.4,231.7,216.1z M124.8,202.5c7.9,2.6,15.7,5.8,23.2,9.7s14.7,8.4,21.4,13.2c-21.2,30.8-41.3,46.9-50,42.4
			S112.1,237.7,124.8,202.5z M107.5,259.1c-14.2-14.2-20.4-37.6-17.9-63.8c9.4,0.7,19,2.4,28.5,5.1
			C109.9,223.6,105.4,245.1,107.5,259.1z M160.8,130.5c6.9,5,14.3,9.6,22.1,13.6c7.8,4,15.8,7.3,24,10c-4.1,10.6-9.1,21.8-15.1,33.6
			l-49.5-25.4C148.4,150.6,154.6,140,160.8,130.5z M188.5,193.9c-5,9.3-10.1,17.9-15.2,25.7c-6.9-5-14.3-9.6-22.1-13.6
			c-7.8-4-15.8-7.3-24-10c4.1-10.6,8.2-19.7,12-27.4L188.5,193.9z M174.9,229.6c7.8,6.2,14.8,13,20.8,20.2
			c-19.8,17.3-42.4,25.9-62.3,22.6C146.1,265.9,160.9,249.8,174.9,229.6z M198,191c5.8-11.4,11.1-23.2,15.6-34.8
			c10.1,2.9,20.2,4.7,30.1,5.5c-2.2,14.7-7,30.1-14.7,45.1L198,191z M215.9,149.7c8.3-23.1,12.8-44.6,10.6-58.6
			c14.2,14.2,20.4,37.6,17.9,63.8C235.1,154.1,225.5,152.4,215.9,149.7z M209.3,147.7c-7.9-2.6-15.7-5.8-23.2-9.7
			c-7.6-3.9-14.7-8.4-21.4-13.2c21.2-30.8,41.3-46.9,50-42.4C223.3,86.8,222,112.5,209.3,147.7z M159.2,120.6
			c-7.8-6.2-14.8-13-20.8-20.2c19.8-17.3,42.4-25.9,62.3-22.6C188,84.2,173.2,100.4,159.2,120.6z M155.3,126.3
			c-6.8,10.4-13.4,21.5-19.2,32.9l-30.9-15.9c7.7-15,17.4-27.9,28.1-38.3C139.7,112.7,147.1,119.8,155.3,126.3z M133,165.4
			c-4.6,9.4-8.8,19-12.5,28.5c-10.1-2.9-20.2-4.7-30.1-5.5c1.9-12.7,5.8-25.8,11.8-38.8L133,165.4z M83.6,188
			c-6.8-0.2-13.4,0.2-19.8,1.1c-2.5-18.3-0.2-37.4,7.6-55.3l24.6,12.7C89.7,160.3,85.5,174.4,83.6,188z M65,196
			c5.8-0.8,11.7-1.2,17.8-1.1c-1.7,18.6,0.7,35.9,7,50C77.2,231,68.7,214,65,196z M155.3,278.6c15.2-3.1,30.7-11.3,44.8-23.4
			c3.7,4.9,6.8,9.9,9.5,15.1C192.6,277.7,173.9,280.7,155.3,278.6z M235,210c8.2-15.9,13.2-32.2,15.4-47.9
			c6.8,0.2,13.4-0.2,19.8-1.1c2.8,20.5-0.3,41.9-10.5,61.7L235,210z M269.1,154.2c-5.8,0.8-11.7,1.2-17.8,1.1
			c1.7-18.6-0.7-35.9-7-50C256.9,119.2,265.4,136.1,269.1,154.2z M178.8,71.6c-15.2,3.1-30.7,11.3-44.8,23.4
			c-3.7-4.9-6.8-9.9-9.5-15.1C141.4,72.5,160.2,69.5,178.8,71.6z M118.3,83c3,5.7,6.5,11.3,10.6,16.7
			c-11.4,10.9-21.8,24.6-29.9,40.4l-24.7-12.7C84.4,107.7,100.1,92.7,118.3,83z"/>
	</g>
	<g>
		<path class="st17" d="M175.9,240.4l-85.6,49.4c-4.7,2.7-10.5,2.7-15.2,0l-39-22.6c-8.8-5.1-14.2-14.5-14.2-24.6l-0.2-135.1
			c0-10.2,5.4-19.6,14.3-24.7l116.8-67.4c8.8-5.1,19.7-5.1,28.6,0l39,22.6c3.4,2,3.4,6.8,0,8.8l-79,45.6
			c-15.3,8.8-24.7,25.2-24.7,42.8v34.2c0,21.6,23.4,35.2,42.1,24.3l19.2-11.1c6.1-3.5,13.7,0.9,13.7,7.9v22.7
			C191.6,224.4,185.6,234.8,175.9,240.4z"/>
		<path class="st17" d="M298.2,267.5l-116.9,67.3c-8.8,5.1-19.7,5.1-28.5,0L114,312.3c-3.4-2-3.4-6.8,0-8.8l76.6-44.2
			c15.3-8.8,24.7-25.2,24.7-42.8v-34.2c0-21.6-23.4-35.2-42.1-24.3L154,169c-6.1,3.5-13.7-0.9-13.7-7.9v-22.7
			c0-11.2,6-21.6,15.7-27.2l87.9-50.7c4.7-2.7,10.5-2.7,15.2,0l39.1,22.6c8.8,5.1,14.2,14.5,14.2,24.6l0.1,135
			C312.5,253,307.1,262.4,298.2,267.5z"/>
	</g>
</g>
</svg>
